<?xml version="1.0" encoding="utf-8"?>
<!-- Generator: Adobe Illustrator 23.0.1, SVG Export Plug-In . SVG Version: 6.00 Build 0)  -->
<svg version="1.1" id="Layer_1" xmlns="http://www.w3.org/2000/svg" xmlns:xlink="http://www.w3.org/1999/xlink" x="0px" y="0px"
	 viewBox="0 0 2551.2 2551.2" style="enable-background:new 0 0 2551.2 2551.2;" xml:space="preserve">
<style type="text/css">
	.st0{fill:url(#SVGID_1_);}
	.st1{fill:url(#SVGID_2_);}
	.st2{fill:url(#SVGID_3_);}
	.st3{fill:url(#SVGID_4_);}
	.st4{fill:url(#SVGID_5_);}
	.st5{fill:url(#SVGID_6_);}
	.st6{fill:url(#SVGID_7_);}
	.st7{fill:url(#SVGID_8_);}
	.st8{fill:url(#SVGID_9_);}
	.st9{fill:url(#SVGID_10_);}
	.st10{fill:url(#SVGID_11_);}
	.st11{fill:url(#SVGID_12_);}
	.st12{fill:url(#SVGID_13_);}
	.st13{fill:url(#SVGID_14_);}
	.st14{fill:url(#SVGID_15_);}
	.st15{fill:url(#SVGID_16_);}
	.st16{fill:url(#SVGID_17_);}
	.st17{fill:url(#SVGID_18_);}
	.st18{fill:url(#SVGID_19_);}
	.st19{fill:url(#SVGID_20_);}
	.st20{fill:url(#SVGID_21_);}
	.st21{fill:url(#SVGID_22_);}
	.st22{fill:url(#SVGID_23_);}
	.st23{fill:url(#SVGID_24_);}
	.st24{fill:url(#SVGID_25_);}
	.st25{fill:url(#SVGID_26_);}
	.st26{fill:url(#SVGID_27_);}
	.st27{fill:url(#SVGID_28_);}
	.st28{fill:url(#SVGID_29_);}
	.st29{fill:url(#SVGID_30_);}
	.st30{fill:url(#SVGID_31_);}
	.st31{fill:url(#SVGID_32_);}
</style>
<g>
	
		<radialGradient id="SVGID_1_" cx="859.625" cy="1666.6611" r="31.0852" gradientTransform="matrix(1 0 0 -1 0 2551.1812)" gradientUnits="userSpaceOnUse">
		<stop  offset="0" style="stop-color:#931C13"/>
		<stop  offset="0.1797" style="stop-color:#901B13"/>
		<stop  offset="0.3346" style="stop-color:#851911"/>
		<stop  offset="0.4804" style="stop-color:#73160F"/>
		<stop  offset="0.6205" style="stop-color:#5A110C"/>
		<stop  offset="0.7568" style="stop-color:#3A0B07"/>
		<stop  offset="0.8882" style="stop-color:#130402"/>
		<stop  offset="0.9441" style="stop-color:#000000"/>
	</radialGradient>
	<path class="st0" d="M851.5,872.5c-1.8,0-3.6,0-5.3,0.1c0-1.7,0.1-3.3,0.2-5c-5.1-3.5-10.2-7.2-15.1-10.8c0,0.2-0.1,0.4-0.1,0.6
		c-3.2,12.9-3.3,25.8-0.4,38.7c0.6,2.8,0.7,4.4,0.1,5c-0.6,0.6-2.4,0.5-5.3-0.4c0.6,1.3,1.2,2.6,1.9,3.9c9.6,4.6,19.1,7.1,28.7,7.5
		c0-1.6-0.1-3.3-0.1-4.9c-3.5-0.5-5.8-1.4-6.9-2.4c-1-1-1.8-3.1-2-6.2c-0.6-7.1-0.9-14.1-0.9-21.2c1.4,0,2.8,0,4.3,0
		c2.8,0,5,0.3,6.9,0.8s3.3,1.3,4.5,2.4c2.5,2.3,3.9,6.9,4,13.9c0,0.3,0,0.7,0,1.3c0.1,6.5,0.7,10.9,1.9,13c0.9,1.4,2,2.4,3.5,2.8
		c1.5,0.5,3.2,0.4,5.4-0.3c3.6-1.1,6.9-3.5,10-6.5c3-3,5.5-6.4,6.8-10.3c0.2-0.5,0.3-0.9,0.3-1.1s0.1-0.5,0.1-0.7
		c-1.4,0.3-2.9,0.6-4.3,0.8c-0.6,2.5-1.6,4.6-2.7,6.1c-1.1,1.5-2.3,2.5-3.6,2.8c-0.8,0.2-1.3,0.1-1.6-0.3c-0.3-0.4-0.3-1.4-0.3-3
		c0-0.6,0.1-1.6,0.3-3c0.3-3.7,0.2-6.6-0.3-8.9c-0.1-0.5-0.2-1-0.4-1.4c-9.2-2.8-18.4-7.7-27.4-13.4
		C852.9,872.5,852.2,872.5,851.5,872.5z"/>
	
		<radialGradient id="SVGID_2_" cx="857.8008" cy="1691.6426" r="26.3337" gradientTransform="matrix(1 0 0 -1 0 2551.1812)" gradientUnits="userSpaceOnUse">
		<stop  offset="0" style="stop-color:#931C13"/>
		<stop  offset="0.1797" style="stop-color:#901B13"/>
		<stop  offset="0.3346" style="stop-color:#851911"/>
		<stop  offset="0.4804" style="stop-color:#73160F"/>
		<stop  offset="0.6205" style="stop-color:#5A110C"/>
		<stop  offset="0.7568" style="stop-color:#3A0B07"/>
		<stop  offset="0.8882" style="stop-color:#130402"/>
		<stop  offset="0.9441" style="stop-color:#000000"/>
	</radialGradient>
	<path class="st1" d="M878.1,875.8c-2.8-2-6.7-3.7-11.6-4.8c7.5-0.8,13.2-2.5,16.8-4.8c3.6-2.3,5-5.3,4.2-9.4
		c-1.1-5.2-4.7-9.7-9.5-13.4c-5-3.6-11.3-6.5-19.7-6.2c-9.4,0.4-18.8,3-28.2,7.9c-0.7,1.3-1.4,2.6-2,3.9c2.8-1,4.6-1.1,5.2-0.5
		c0.6,0.5,0.5,2,0,4.4c4.9,3.6,10,7.3,15.1,10.8c0.2-4.3,0.4-8.6,0.8-12.9c0.3-3.3,1.1-5.6,2.2-6.8c1.1-1.2,3.3-2,6.6-2.1
		c3.7-0.1,6.5,1.2,8.7,3.7c2.2,2.5,3.6,5.9,3.9,10.3c0.3,4.5-0.9,7.7-3.6,9.7c-2.4,1.7-6.2,2.7-11.4,3c9,5.7,18.2,10.6,27.4,13.4
		C882,879.5,880.4,877.5,878.1,875.8z"/>
	
		<radialGradient id="SVGID_3_" cx="941.7212" cy="1699.0806" r="11.8687" gradientTransform="matrix(0.9823 -0.1873 -0.1873 -0.9823 334.9255 2697.4536)" gradientUnits="userSpaceOnUse">
		<stop  offset="0" style="stop-color:#931C13"/>
		<stop  offset="0.1797" style="stop-color:#901B13"/>
		<stop  offset="0.3346" style="stop-color:#851911"/>
		<stop  offset="0.4804" style="stop-color:#73160F"/>
		<stop  offset="0.6205" style="stop-color:#5A110C"/>
		<stop  offset="0.7568" style="stop-color:#3A0B07"/>
		<stop  offset="0.8882" style="stop-color:#130402"/>
		<stop  offset="0.9441" style="stop-color:#000000"/>
	</radialGradient>
	<path class="st2" d="M945.2,847.1c0.5-0.6,2.3-0.8,5.3-0.3c-0.8-1.2-1.7-2.3-2.7-3.5c-6.2-1.8-12.3-2.8-18.2-2.8
		c0.6,1.5,1.1,3,1.7,4.5c2.7,0.1,4.7,0.7,5.9,1.5c1.2,0.9,2.5,2.8,3.6,5.7c1.7,4.4,3.1,8.8,4.2,13.2c1.6-1.4,3.2-2.7,4.8-4.1
		c-1-3.1-2.2-6.1-3.5-9.1C945.1,849.5,944.7,847.7,945.2,847.1z"/>
	
		<radialGradient id="SVGID_4_" cx="920.4769" cy="1661.7424" r="25.7875" gradientTransform="matrix(0.9888 0.1493 0.1493 -0.9888 -238.4094 2395.2251)" gradientUnits="userSpaceOnUse">
		<stop  offset="0" style="stop-color:#931C13"/>
		<stop  offset="0.1797" style="stop-color:#901B13"/>
		<stop  offset="0.3346" style="stop-color:#851911"/>
		<stop  offset="0.4804" style="stop-color:#73160F"/>
		<stop  offset="0.6205" style="stop-color:#5A110C"/>
		<stop  offset="0.7568" style="stop-color:#3A0B07"/>
		<stop  offset="0.8882" style="stop-color:#130402"/>
		<stop  offset="0.9441" style="stop-color:#000000"/>
	</radialGradient>
	<path class="st3" d="M942,887.6c-1.4,6.6-4.4,11.3-7.8,14.5c-3.5,3.2-7.6,4.9-12.5,4.4c-4.9-0.5-8.1-2.9-10.1-6.7
		c-1.8-3.6-2.7-8.8-2-15.5c-5.8,0.7-11.4,0.1-16.9-1.5c0.4,6.9,3,12.8,6.2,17.8c4.1,5.9,9.4,10.8,16.9,12c7.6,1.2,14.1-1.7,19.8-6.2
		c5.6-4.5,10.6-10.9,12.6-19.7c1.2-5.5,1.9-11,2-16.6c-2,0.7-4,1.5-5.9,2.2C943.9,877.6,943.1,882.7,942,887.6z"/>
	
		<radialGradient id="SVGID_5_" cx="902.6951" cy="1692.4114" r="19.4061" gradientTransform="matrix(1 0 0 -1 0 2551.1812)" gradientUnits="userSpaceOnUse">
		<stop  offset="0" style="stop-color:#931C13"/>
		<stop  offset="0.1797" style="stop-color:#901B13"/>
		<stop  offset="0.3346" style="stop-color:#851911"/>
		<stop  offset="0.4804" style="stop-color:#73160F"/>
		<stop  offset="0.6205" style="stop-color:#5A110C"/>
		<stop  offset="0.7568" style="stop-color:#3A0B07"/>
		<stop  offset="0.8882" style="stop-color:#130402"/>
		<stop  offset="0.9441" style="stop-color:#000000"/>
	</radialGradient>
	<path class="st4" d="M909,880.7c0-0.4,0-0.8-0.1-1.2c-0.3-10.2,0-20.5,0.8-30.7c0.3-3.3,0.9-5.5,1.8-6.5c0.9-1,2.7-1.8,5.3-2.1
		c0-1.6,0.1-3.3,0.2-4.9c-8.9,0.5-17.8,3.1-26.6,7.8c-0.7,1.3-1.3,2.6-1.9,3.9c3-1.1,4.7-1.3,5.3-0.8c0.6,0.5,0.5,2.2-0.2,5.2
		c-2,8.7-2.8,17.3-2.2,26c0.1,1.5,0.3,3,0.6,4.5C897.7,882.5,903.4,882.3,909,880.7z"/>
	
		<radialGradient id="SVGID_6_" cx="966.9441" cy="1666.592" r="22.1947" gradientTransform="matrix(0.9954 -9.610000e-02 -9.610000e-02 -0.9954 164.86 2636.3396)" gradientUnits="userSpaceOnUse">
		<stop  offset="0" style="stop-color:#931C13"/>
		<stop  offset="0.1797" style="stop-color:#901B13"/>
		<stop  offset="0.3346" style="stop-color:#851911"/>
		<stop  offset="0.4804" style="stop-color:#73160F"/>
		<stop  offset="0.6205" style="stop-color:#5A110C"/>
		<stop  offset="0.7568" style="stop-color:#3A0B07"/>
		<stop  offset="0.8882" style="stop-color:#130402"/>
		<stop  offset="0.9441" style="stop-color:#000000"/>
	</radialGradient>
	<path class="st5" d="M960.5,898.6c0.5,3,0.4,4.8-0.4,5.3c-0.8,0.5-2.6,0.3-5.8-1.8c0.4,1.3,0.8,2.5,1.3,3.8c9.9,9.2,18.9,8.5,27-2
		c0.2-1.3,0.4-2.7,0.5-4c-2.6,2.5-4.4,3.1-5.3,2.7c-0.8-0.4-1.3-2.2-1.4-5.3c-0.4-13.8-1.7-27.6-3.9-41.3c-5.5,1.3-10.8,3.6-16,6.4
		C957.2,874.5,958.5,886.6,960.5,898.6z"/>
	
		<radialGradient id="SVGID_7_" cx="966.145" cy="1703.7468" r="12.4252" gradientTransform="matrix(1 0 0 -1 0 2551.1812)" gradientUnits="userSpaceOnUse">
		<stop  offset="0" style="stop-color:#931C13"/>
		<stop  offset="0.1797" style="stop-color:#901B13"/>
		<stop  offset="0.3346" style="stop-color:#851911"/>
		<stop  offset="0.4804" style="stop-color:#73160F"/>
		<stop  offset="0.6205" style="stop-color:#5A110C"/>
		<stop  offset="0.7568" style="stop-color:#3A0B07"/>
		<stop  offset="0.8882" style="stop-color:#130402"/>
		<stop  offset="0.9441" style="stop-color:#000000"/>
	</radialGradient>
	<path class="st6" d="M975.1,846.3c0.8-0.5,2.6-0.1,5.5,2.2c-0.3-1.3-0.6-2.6-0.9-3.9c-9-9.7-18-9.5-27,0.6
		c-0.3,1.3-0.6,2.6-0.9,3.9c2.9-2.4,4.8-2.8,5.6-2.4c0.8,0.5,1.1,2.3,0.9,5.2c-0.1,1.9-0.2,3.7-0.3,5.6c5.4-2.3,10.9-4,16.5-4.8
		c0-0.3,0-0.6-0.1-0.9C974,848.6,974.3,846.8,975.1,846.3z"/>
	
		<radialGradient id="SVGID_8_" cx="991.855" cy="1666.891" r="18.587" gradientTransform="matrix(1 0 0 -1 0 2551.1812)" gradientUnits="userSpaceOnUse">
		<stop  offset="0" style="stop-color:#931C13"/>
		<stop  offset="0.1797" style="stop-color:#901B13"/>
		<stop  offset="0.3346" style="stop-color:#851911"/>
		<stop  offset="0.4804" style="stop-color:#73160F"/>
		<stop  offset="0.6205" style="stop-color:#5A110C"/>
		<stop  offset="0.7568" style="stop-color:#3A0B07"/>
		<stop  offset="0.8882" style="stop-color:#130402"/>
		<stop  offset="0.9441" style="stop-color:#000000"/>
	</radialGradient>
	<path class="st7" d="M987,893.4c0.7,2.9,0.7,4.6,0,5.1c-0.7,0.5-2.7,0.4-6.1-0.8c0.6,1.3,1.2,2.6,1.9,3.9
		c6.6,3.2,13.2,5.4,19.8,6.6c-0.2-1.6-0.5-3.2-0.7-4.8c-3.5-0.8-5.9-1.8-7-2.9c-1.1-1.1-2.1-3.1-2.6-6.1c-1.3-7.6-1.8-15.2-1.7-22.8
		c-1.5-4-2.9-8-4.7-11.2C984.2,871.4,984.5,882.4,987,893.4z"/>
	
		<radialGradient id="SVGID_9_" cx="1030.0349" cy="1656.6261" r="12.0817" gradientTransform="matrix(1 0 0 -1 0 2551.1812)" gradientUnits="userSpaceOnUse">
		<stop  offset="0" style="stop-color:#931C13"/>
		<stop  offset="0.1797" style="stop-color:#901B13"/>
		<stop  offset="0.3346" style="stop-color:#851911"/>
		<stop  offset="0.4804" style="stop-color:#73160F"/>
		<stop  offset="0.6205" style="stop-color:#5A110C"/>
		<stop  offset="0.7568" style="stop-color:#3A0B07"/>
		<stop  offset="0.8882" style="stop-color:#130402"/>
		<stop  offset="0.9441" style="stop-color:#000000"/>
	</radialGradient>
	<path class="st8" d="M1018.7,889.9c4.6,6.3,8.5,12.3,10.9,17.4c2.1-0.5,4.1-1.2,6.2-2c2.9-7.9,4.8-15.7,5.6-23.6
		c-4.3,2-8.7,4-13.1,5.7C1025.3,888.6,1022,889.5,1018.7,889.9z"/>
	
		<radialGradient id="SVGID_10_" cx="1013.37" cy="1691.1361" r="29.0784" gradientTransform="matrix(1 0 0 -1 0 2551.1812)" gradientUnits="userSpaceOnUse">
		<stop  offset="0" style="stop-color:#931C13"/>
		<stop  offset="0.1797" style="stop-color:#901B13"/>
		<stop  offset="0.3346" style="stop-color:#851911"/>
		<stop  offset="0.4804" style="stop-color:#73160F"/>
		<stop  offset="0.6205" style="stop-color:#5A110C"/>
		<stop  offset="0.7568" style="stop-color:#3A0B07"/>
		<stop  offset="0.8882" style="stop-color:#130402"/>
		<stop  offset="0.9441" style="stop-color:#000000"/>
	</radialGradient>
	<path class="st9" d="M1039.4,849c-0.7-2.9-0.8-4.7-0.1-5.2s2.7-0.4,6,0.8c-0.6-1.3-1.3-2.6-2-3.9c-6.5-3.2-13-5.4-19.5-6.5
		c0.3,1.6,0.5,3.2,0.7,4.8c3.4,0.7,5.7,1.8,6.9,2.8c1.2,1.1,2.2,3.2,2.7,6.2c2,10.8,2.4,21.6,1.4,32.3
		c-10.7-13.9-26.5-32.4-33.6-45.8c-6.2,1.3-12.3,3.5-18.4,6.6c-0.7,1.3-1.4,2.6-2,3.9c3.3-1.2,5.3-1.3,6-0.8
		c0.7,0.5,0.6,2.2-0.1,5.1c-0.5,2-0.9,4-1.2,6.1c1.8,3.2,3.3,7.2,4.7,11.2c0.1-5.2,0.6-10.4,1.4-15.6c7,9.9,17.9,23,26.5,35
		c3.3-0.4,6.6-1.3,9.6-2.5c4.4-1.7,8.8-3.6,13.1-5.7C1042.3,868.2,1041.7,858.6,1039.4,849z"/>
	
		<radialGradient id="SVGID_11_" cx="1091.4722" cy="1690.501" r="9.620000e-02" gradientTransform="matrix(1 0 0 -1 0 2551.1812)" gradientUnits="userSpaceOnUse">
		<stop  offset="0" style="stop-color:#931C13"/>
		<stop  offset="0.1797" style="stop-color:#901B13"/>
		<stop  offset="0.3346" style="stop-color:#851911"/>
		<stop  offset="0.4804" style="stop-color:#73160F"/>
		<stop  offset="0.6205" style="stop-color:#5A110C"/>
		<stop  offset="0.7568" style="stop-color:#3A0B07"/>
		<stop  offset="0.8882" style="stop-color:#130402"/>
		<stop  offset="0.9441" style="stop-color:#000000"/>
	</radialGradient>
	<path class="st10" d="M1091.6,860.7C1091.6,860.7,1091.6,860.7,1091.6,860.7c-0.1-0.1-0.2-0.1-0.3,0
		C1091.4,860.7,1091.5,860.7,1091.6,860.7z"/>
	
		<radialGradient id="SVGID_12_" cx="1043.9501" cy="1670.9071" r="1.2548" gradientTransform="matrix(1 0 0 -1 0 2551.1812)" gradientUnits="userSpaceOnUse">
		<stop  offset="0" style="stop-color:#931C13"/>
		<stop  offset="0.1797" style="stop-color:#901B13"/>
		<stop  offset="0.3346" style="stop-color:#851911"/>
		<stop  offset="0.4804" style="stop-color:#73160F"/>
		<stop  offset="0.6205" style="stop-color:#5A110C"/>
		<stop  offset="0.7568" style="stop-color:#3A0B07"/>
		<stop  offset="0.8882" style="stop-color:#130402"/>
		<stop  offset="0.9441" style="stop-color:#000000"/>
	</radialGradient>
	<path class="st11" d="M1042.4,879.4c0.1,0.6,0.2,1.2,0.3,1.7c0.9-0.5,1.9-0.9,2.8-1.3C1044.5,879.7,1043.4,879.5,1042.4,879.4z"/>
	
		<radialGradient id="SVGID_13_" cx="1070.9678" cy="1661.5447" r="24.6306" gradientTransform="matrix(-0.7818 -0.6235 -0.6235 0.7818 2951.3223 227.3795)" gradientUnits="userSpaceOnUse">
		<stop  offset="0" style="stop-color:#931C13"/>
		<stop  offset="0.1797" style="stop-color:#901B13"/>
		<stop  offset="0.3346" style="stop-color:#851911"/>
		<stop  offset="0.4804" style="stop-color:#73160F"/>
		<stop  offset="0.6205" style="stop-color:#5A110C"/>
		<stop  offset="0.7568" style="stop-color:#3A0B07"/>
		<stop  offset="0.8882" style="stop-color:#130402"/>
		<stop  offset="0.9441" style="stop-color:#000000"/>
	</radialGradient>
	<path class="st12" d="M1078.1,869.8c-1.9-3.1-3.9-6.2-5.8-9.2c-2.8-4.1-4.4-7.2-4.8-9.4c-0.4-2.2,0.3-4.2,2.2-6.1
		c2-2,4.8-3.2,8.1-3.6c3.3-0.4,6.3,0,8.9,1.8c3.5,2.4,5,6.8,5.3,12.9c0.3,6-0.4,13.4-2.1,20.9c0.7,0.7,1.3,1.4,2,2
		c1,0.2,2,0.5,3,0.7c3.4-6.2,6.3-13,8.6-20.5c-0.5-1.5-1-3-1.6-4.5c-0.6,1.1-1.2,1.7-1.8,1.9s-1.2-0.1-1.6-0.8
		c-0.4-0.7-0.9-2.2-1.5-4.3c-0.6-2.1-1-3.5-1.4-4.4c-0.9-2.4-1.8-4.2-2.6-5.3s-1.8-2.2-2.9-2.9c-4.5-3-10.7-2.8-17.6-1.5
		c-6.9,1.4-12.7,3.3-16.7,7c-3.5,3.2-4.6,7-4.2,11.7c0.4,4.1,2,9,4.9,14.2c8.2,2.7,16.7,4.6,25.2,6.5
		C1080.8,874.6,1079.6,872.2,1078.1,869.8z"/>
	
		<radialGradient id="SVGID_14_" cx="1065.0082" cy="1696.8372" r="21.4952" gradientTransform="matrix(-0.7818 -0.6235 -0.6235 0.7818 2951.3223 227.3795)" gradientUnits="userSpaceOnUse">
		<stop  offset="0" style="stop-color:#931C13"/>
		<stop  offset="0.1797" style="stop-color:#901B13"/>
		<stop  offset="0.3346" style="stop-color:#851911"/>
		<stop  offset="0.4804" style="stop-color:#73160F"/>
		<stop  offset="0.6205" style="stop-color:#5A110C"/>
		<stop  offset="0.7568" style="stop-color:#3A0B07"/>
		<stop  offset="0.8882" style="stop-color:#130402"/>
		<stop  offset="0.9441" style="stop-color:#000000"/>
	</radialGradient>
	<path class="st13" d="M1039.1,893.5c0.6-0.8,1.2-1.3,1.8-1.4c0.6-0.1,1.1,0.2,1.5,0.8c0.1,0.2,0.3,0.5,0.4,0.9
		c0.2,0.4,0.3,0.6,0.3,0.7c0,0,0.2,0.6,0.4,1.6c0.3,1,0.6,2,0.9,2.9c0.7,1.9,1.5,3.4,2.3,4.5c0.8,1.1,1.6,2,2.6,2.6
		c4.3,3,10.2,2.8,16.6,1.6c6.4-1.3,11.9-3.3,15.6-6.8c3.1-2.8,4.1-6.2,3.8-10.7c-0.2-2.3-0.7-4.7-1.7-7.2c-8.5-1.8-17-3.8-25.2-6.5
		c0.4,0.7,0.8,1.3,1.2,2c2,3.1,3.9,6.2,5.9,9.1c2,2.8,3.2,5.3,3.6,7.6s-0.1,4-1.6,5.5c-1.7,1.8-4.1,2.8-7,3.1c-2.9,0.3-5.6-0.2-8-2
		c-2.8-2-4.2-5.4-4.6-9.9c-0.4-4.6,0-10.4,1.1-16.9c-1-1.1-2-2.2-3-3.4c-0.1,0-0.1-0.1-0.2-0.1c-3.1,5.8-5.9,12-8.4,18.6
		C1037.9,891.2,1038.5,892.4,1039.1,893.5z"/>
	
		<radialGradient id="SVGID_15_" cx="1138.9692" cy="1656.7708" r="24.3272" gradientTransform="matrix(1.014 0 0 -1 -15.58 2551.1812)" gradientUnits="userSpaceOnUse">
		<stop  offset="0" style="stop-color:#931C13"/>
		<stop  offset="0.1797" style="stop-color:#901B13"/>
		<stop  offset="0.3346" style="stop-color:#851911"/>
		<stop  offset="0.4804" style="stop-color:#73160F"/>
		<stop  offset="0.6205" style="stop-color:#5A110C"/>
		<stop  offset="0.7568" style="stop-color:#3A0B07"/>
		<stop  offset="0.8882" style="stop-color:#130402"/>
		<stop  offset="0.9441" style="stop-color:#000000"/>
	</radialGradient>
	<path class="st14" d="M1151.5,889.5c-0.2-0.2-0.3-0.4-0.5-0.6c-0.4,7.5-1.8,12.8-3.4,16.1c-1.9,3.8-4.6,6-8.2,6
		c-3.6,0-6.3-2.3-8.2-6.1c-1.9-3.8-3.5-10.4-3.5-19.9c0-3.3,0.2-6.2,0.5-8.8c-3.4-0.8-6.8-1.4-10.3-2.1c-0.9-0.1-1.8-0.2-2.7-0.3
		c-0.2,0.3-0.4,0.6-0.5,0.9c-2,3.4-3.2,6.7-3.2,10.3c0,3.6,1.2,7,3.2,10.4c2,3.4,4.8,6.8,7.9,10c2.8,2.8,5.5,5.2,8.3,7
		s5.5,2.7,8.5,2.8c2.9,0,5.7-0.9,8.4-2.6c2.8-1.7,5.5-4.1,8.3-6.9c3.2-3.3,6-6.7,8-10.1c2.1-3.4,3.3-6.8,3.2-10.5c0,0,0,0,0,0
		c-2.2,0.8-4.5,1.6-6.8,2.1C1158,888.6,1153.1,891.9,1151.5,889.5z"/>
	
		<radialGradient id="SVGID_16_" cx="1153.7874" cy="1687.3741" r="27.2476" gradientTransform="matrix(0.948 0.3182 0.3182 -0.948 -479.9305 2090.2585)" gradientUnits="userSpaceOnUse">
		<stop  offset="0" style="stop-color:#931C13"/>
		<stop  offset="0.1797" style="stop-color:#901B13"/>
		<stop  offset="0.3346" style="stop-color:#851911"/>
		<stop  offset="0.4804" style="stop-color:#73160F"/>
		<stop  offset="0.6205" style="stop-color:#5A110C"/>
		<stop  offset="0.7568" style="stop-color:#3A0B07"/>
		<stop  offset="0.8882" style="stop-color:#130402"/>
		<stop  offset="0.9441" style="stop-color:#000000"/>
	</radialGradient>
	<path class="st15" d="M1171,853.8c-2.1-4.3-4.3-8.2-6.8-11.3c-2.5-3-5.3-5.2-8.7-6.3c-3.4-1.1-6.9-1-10.8,0c-3.9,1-8,2.7-12.3,5
		c-4.5,2.4-8.7,5-12.2,7.8c1,0.4,2,0.9,2.9,1.4c3.7,2.1,7.5,4.2,11.1,6.5c2.6-5.4,5.3-9.3,7.7-11.8c3.7-3.7,7.7-5.3,11.9-4
		c4.2,1.4,6.4,5,7.2,10.2c0.7,5.2,0,13.6-3.7,24.7c-0.5,1.6-1.1,3.1-1.7,4.5c0.1,0.3,0.2,0.6,0.3,0.9c0.9,3.5,7.9,1.6,11.4,0.7
		c2.8,0.2,5.8,0.2,8.7,0.1c1.4-4.3,1.4-8.7,0.4-13.5C1175.4,863.9,1173.4,858.9,1171,853.8z"/>
	
		<radialGradient id="SVGID_17_" cx="1210.2849" cy="1696.0676" r="24.6832" gradientTransform="matrix(1 0 0 -1 0 2551.1812)" gradientUnits="userSpaceOnUse">
		<stop  offset="0" style="stop-color:#931C13"/>
		<stop  offset="0.1797" style="stop-color:#901B13"/>
		<stop  offset="0.3346" style="stop-color:#851911"/>
		<stop  offset="0.4804" style="stop-color:#73160F"/>
		<stop  offset="0.6205" style="stop-color:#5A110C"/>
		<stop  offset="0.7568" style="stop-color:#3A0B07"/>
		<stop  offset="0.8882" style="stop-color:#130402"/>
		<stop  offset="0.9441" style="stop-color:#000000"/>
	</radialGradient>
	<path class="st16" d="M1201.1,866.7c0.1-5.3,0.2-10.6,0.5-15.9c0.2-3.5,0.9-5.8,2.2-6.8c1.2-1,3.7-1.7,7.5-1.6
		c5.9,0.3,10.7,2.8,14.7,6.4c4,3.6,7.3,8.4,9.2,14.1c1.8,0.2,3.5,0.5,5.3,0.7c-1.5-6.4-4-13-7.3-19.6c-17-9.1-34.1-8.7-51.1,1.2
		c-0.6,1.3-1.2,2.6-1.8,3.9c2.9-1.1,4.6-1.3,5.3-0.7c0.7,0.5,0.6,2.2,0.1,5c-1.3,6.5-2,13-2,19.5c5.2-1.9,10.2-4.1,14.8-5.4
		C1199.2,867.1,1200.1,866.9,1201.1,866.7z"/>
	
		<radialGradient id="SVGID_18_" cx="1212.8301" cy="1688.2261" r="6.5161" gradientTransform="matrix(1 0 0 -1 0 2551.1812)" gradientUnits="userSpaceOnUse">
		<stop  offset="0" style="stop-color:#931C13"/>
		<stop  offset="0.1797" style="stop-color:#901B13"/>
		<stop  offset="0.3346" style="stop-color:#851911"/>
		<stop  offset="0.4804" style="stop-color:#73160F"/>
		<stop  offset="0.6205" style="stop-color:#5A110C"/>
		<stop  offset="0.7568" style="stop-color:#3A0B07"/>
		<stop  offset="0.8882" style="stop-color:#130402"/>
		<stop  offset="0.9441" style="stop-color:#000000"/>
	</radialGradient>
	<path class="st17" d="M1212.5,855.3c-0.1,4.8-1.3,8.3-3.3,10.5c-0.4,0.5-0.9,0.9-1.5,1.3c3.4,0.8,6.8,2,10.1,3.6
		c-0.1-5-0.3-10-0.8-15C1215.6,855.5,1214.1,855.4,1212.5,855.3z"/>
	
		<radialGradient id="SVGID_19_" cx="1201.2814" cy="1657.9736" r="21.1113" gradientTransform="matrix(0.9356 -0.3529 -0.3529 -0.9356 663.7218 2866.3638)" gradientUnits="userSpaceOnUse">
		<stop  offset="0" style="stop-color:#931C13"/>
		<stop  offset="0.1797" style="stop-color:#901B13"/>
		<stop  offset="0.3346" style="stop-color:#851911"/>
		<stop  offset="0.4804" style="stop-color:#73160F"/>
		<stop  offset="0.6205" style="stop-color:#5A110C"/>
		<stop  offset="0.7568" style="stop-color:#3A0B07"/>
		<stop  offset="0.8882" style="stop-color:#130402"/>
		<stop  offset="0.9441" style="stop-color:#000000"/>
	</radialGradient>
	<path class="st18" d="M1199.3,872.7c-1.2,0.5-2.5,1-3.7,1.4c-0.3-0.8-0.5-1.5-0.8-2.3c-0.8,0.5-1.6,1-2.4,1.7
		c-3.8,2.8-7.8,6.7-11.9,10.3c2.3,6.2,5.3,12,8.8,17.7c1.5,2.4,2.1,4,1.7,4.7c-0.4,0.7-2.1,1.2-5.2,1.2c1,1,2,2,3,3
		c10.6,1.8,20.2,0.9,28.8-2.7c-0.5-1.6-1.1-3.1-1.6-4.7c-3.2,0.9-5.6,0.9-6.9,0.3c-1.3-0.6-2.7-2.4-3.9-5.2
		c-2.8-6.4-5.4-12.8-7.9-19.3c1.2-0.5,2.5-0.9,3.7-1.4c3.8-1.5,7.2-1.5,9.8-0.1c2.7,1.3,5,4.2,6.9,8.6c1.4-0.6,2.8-1.3,4.2-2
		c-1.6-5.5-3.4-10.9-5.5-16.2c-3.7-0.3-7.3-0.3-10.8,0.2C1204.5,870,1202.3,871.6,1199.3,872.7z"/>
	
		<radialGradient id="SVGID_20_" cx="1302.915" cy="1672.6611" r="12.3178" gradientTransform="matrix(1 0 0 -1 0 2551.1812)" gradientUnits="userSpaceOnUse">
		<stop  offset="0" style="stop-color:#931C13"/>
		<stop  offset="0.1797" style="stop-color:#901B13"/>
		<stop  offset="0.3346" style="stop-color:#851911"/>
		<stop  offset="0.4804" style="stop-color:#73160F"/>
		<stop  offset="0.6205" style="stop-color:#5A110C"/>
		<stop  offset="0.7568" style="stop-color:#3A0B07"/>
		<stop  offset="0.8882" style="stop-color:#130402"/>
		<stop  offset="0.9441" style="stop-color:#000000"/>
	</radialGradient>
	<path class="st19" d="M1319.4,877.4c0.1-1.3,0.2-2.6,0.2-3.9c-11.1,0.1-22.2,0.2-33.3,0.2c0,1.6,0,3.3,0,4.9c3.7,0.2,6,0.8,7,1.7
		c0.5,0.5,0.9,1.3,1.1,2.5c5.5,0.3,11,0.6,16.5,0.7c0.4-2,0.9-3.3,1.8-4C1313.7,878.6,1315.9,877.9,1319.4,877.4z"/>
	
		<radialGradient id="SVGID_21_" cx="1277.12" cy="1701.4303" r="24.9282" gradientTransform="matrix(1 0 0 -1 0 2551.1812)" gradientUnits="userSpaceOnUse">
		<stop  offset="0" style="stop-color:#931C13"/>
		<stop  offset="0.1797" style="stop-color:#901B13"/>
		<stop  offset="0.3346" style="stop-color:#851911"/>
		<stop  offset="0.4804" style="stop-color:#73160F"/>
		<stop  offset="0.6205" style="stop-color:#5A110C"/>
		<stop  offset="0.7568" style="stop-color:#3A0B07"/>
		<stop  offset="0.8882" style="stop-color:#130402"/>
		<stop  offset="0.9441" style="stop-color:#000000"/>
	</radialGradient>
	<path class="st20" d="M1270.5,847.1c3.2-5.3,7.3-8.4,12.5-8.4c4,0,7.6,1.9,11,5.4c3.4,3.5,6.6,8.2,8.9,14c1.7,0.1,3.3,0.3,5,0.5
		c-0.8-7.4-2.4-14.7-4.9-22.1c-1.5-0.5-3-1-4.5-1.5c0.2,1.3,0.1,2.3-0.3,3c-0.4,0.6-0.9,0.9-1.7,0.8c-0.8-0.2-2.5-0.9-4.9-2.2
		c-0.2-0.1-0.3-0.2-0.5-0.3c-2.5-1.4-4.6-2.3-6.4-2.8c-1.8-0.5-3.6-0.7-5.3-0.6c-3.4,0.2-6.6,1.5-10,3.7s-6.8,5.1-10.1,8.5
		c-3.9,4-7.4,8.1-9.9,12.2c-1.5,2.5-2.7,5-3.3,7.5c7.1,0.2,13.4,0.1,18.8,2.1C1265.5,858.3,1267.7,851.8,1270.5,847.1z"/>
	
		<radialGradient id="SVGID_22_" cx="1278.5286" cy="1656.2896" r="27.4042" gradientTransform="matrix(0.9764 0.2161 0.2161 -0.9764 -328.7895 2235.6956)" gradientUnits="userSpaceOnUse">
		<stop  offset="0" style="stop-color:#931C13"/>
		<stop  offset="0.1797" style="stop-color:#901B13"/>
		<stop  offset="0.3346" style="stop-color:#851911"/>
		<stop  offset="0.4804" style="stop-color:#73160F"/>
		<stop  offset="0.6205" style="stop-color:#5A110C"/>
		<stop  offset="0.7568" style="stop-color:#3A0B07"/>
		<stop  offset="0.8882" style="stop-color:#130402"/>
		<stop  offset="0.9441" style="stop-color:#000000"/>
	</radialGradient>
	<path class="st21" d="M1293.7,896c-1.7,5.9-4.1,10-6.9,12.5c-2.8,2.4-6.2,3.4-10.1,2.4c-4.6-1.2-7.6-4.8-9.2-10.2
		c-1.6-5.4-2-13.5,0.3-24.2c0.2-1.1,0.5-2.2,0.8-3.2c-4.9-3.1-11.1-4.4-17.9-6.1c-0.1,0.2-0.2,0.4-0.3,0.7c1.6,1.3,2.7,2.8,2.2,4.6
		c-0.1,2.4-1.9,4.7-4.1,6.3c0.2,2.2,0.8,4.4,1.6,6.7c1.6,4.7,4.1,9.5,7.1,14.2c2.5,4,5.2,7.5,8,10.3c2.8,2.8,5.9,4.8,9.5,5.8
		c2.3,0.6,4.6,0.7,6.9,0.4c2.4-0.4,4.7-1.2,7.1-2.3c0.7-0.4,1.7-0.9,2.9-1.5c2-1,3.2-1.5,3.6-1.5c1,0,1.4,1.2,1,3.4c0,0,0,0,0,0
		c-0.2,1-0.4,2.1-0.7,3.1c1.6-0.2,3.2-0.4,4.8-0.6c3.9-6.1,7.1-12.3,9.5-18.7c0.2-0.5,0.4-1,0.6-1.4c-5.3-1.3-10.7-2.8-16-4.3
		C1294.3,893.4,1294.1,894.6,1293.7,896z"/>
	
		<radialGradient id="SVGID_23_" cx="1247.4333" cy="1677.2611" r="4.1532" gradientTransform="matrix(1 0 0 -1 0 2551.1812)" gradientUnits="userSpaceOnUse">
		<stop  offset="0" style="stop-color:#931C13"/>
		<stop  offset="0.1797" style="stop-color:#901B13"/>
		<stop  offset="0.3346" style="stop-color:#851911"/>
		<stop  offset="0.4804" style="stop-color:#73160F"/>
		<stop  offset="0.6205" style="stop-color:#5A110C"/>
		<stop  offset="0.7568" style="stop-color:#3A0B07"/>
		<stop  offset="0.8882" style="stop-color:#130402"/>
		<stop  offset="0.9441" style="stop-color:#000000"/>
	</radialGradient>
	<path class="st22" d="M1249.3,872.4c0-1.9-1.3-3.1-3.2-4c-0.3,1.5-0.5,3-0.5,4.5c0,2.3,0.4,4.5,1.1,6.6
		C1248.4,877.4,1249.7,874.8,1249.3,872.4z"/>
	
		<radialGradient id="SVGID_24_" cx="1342.8251" cy="1693.4362" r="29.4825" gradientTransform="matrix(1 0 0 -1 0 2551.1812)" gradientUnits="userSpaceOnUse">
		<stop  offset="0" style="stop-color:#931C13"/>
		<stop  offset="0.1797" style="stop-color:#901B13"/>
		<stop  offset="0.3346" style="stop-color:#851911"/>
		<stop  offset="0.4804" style="stop-color:#73160F"/>
		<stop  offset="0.6205" style="stop-color:#5A110C"/>
		<stop  offset="0.7568" style="stop-color:#3A0B07"/>
		<stop  offset="0.8882" style="stop-color:#130402"/>
		<stop  offset="0.9441" style="stop-color:#000000"/>
	</radialGradient>
	<path class="st23" d="M1374.3,860.4c-5.7-1.1-11.5-2-17-3c4.7-1.2,9.4-1.8,14.2-1.8c-2.3-3.5-5.2-6.9-8.4-10.2
		c-3.3-3.5-6.7-6.4-10.1-8.5c-3.4-2.1-6.7-3.2-10.3-3.2s-6.9,1.3-10.2,3.4c-3.4,2.1-6.7,5.1-10.1,8.6c-3.9,4-7.3,8.2-9.7,12.4
		c-2.5,4.2-3.9,8.3-3.9,12.8c0,3.7,1,7.2,2.8,10.8c5.9,0.2,11.7,0.2,17.6,0.2c-0.4-3.2-0.7-6.9-0.7-11c0-11.6,2-19.7,4.2-24.4
		c2.3-4.7,5.6-7.5,10-7.5c4.4,0,7.7,2.7,10,7.4c2.3,4.7,4.3,12.9,4.3,24.6c0,3.9-0.2,7.4-0.6,10.5c6-0.2,12.1-0.4,18.1-0.7
		c1.4-3.2,2.3-6.4,2.3-9.8C1376.9,867.2,1375.9,863.8,1374.3,860.4z"/>
	
		<radialGradient id="SVGID_25_" cx="1365.7551" cy="1691.2062" r="6.2497" gradientTransform="matrix(1 0 0 -1 0 2551.1812)" gradientUnits="userSpaceOnUse">
		<stop  offset="0" style="stop-color:#931C13"/>
		<stop  offset="0.1797" style="stop-color:#901B13"/>
		<stop  offset="0.3346" style="stop-color:#851911"/>
		<stop  offset="0.4804" style="stop-color:#73160F"/>
		<stop  offset="0.6205" style="stop-color:#5A110C"/>
		<stop  offset="0.7568" style="stop-color:#3A0B07"/>
		<stop  offset="0.8882" style="stop-color:#130402"/>
		<stop  offset="0.9441" style="stop-color:#000000"/>
	</radialGradient>
	<path class="st24" d="M1374.3,862.4c-0.4-0.8-0.8-1.7-1.3-2.5c-0.4-0.8-0.9-1.5-1.4-2.3c-4.8,0-9.5,0.6-14.2,1.8
		C1362.8,860.4,1368.5,861.3,1374.3,862.4z"/>
	
		<radialGradient id="SVGID_26_" cx="1343.0801" cy="1654.8706" r="24.3052" gradientTransform="matrix(1 0 0 -1 0 2551.1812)" gradientUnits="userSpaceOnUse">
		<stop  offset="0" style="stop-color:#931C13"/>
		<stop  offset="0.1797" style="stop-color:#901B13"/>
		<stop  offset="0.3346" style="stop-color:#851911"/>
		<stop  offset="0.4804" style="stop-color:#73160F"/>
		<stop  offset="0.6205" style="stop-color:#5A110C"/>
		<stop  offset="0.7568" style="stop-color:#3A0B07"/>
		<stop  offset="0.8882" style="stop-color:#130402"/>
		<stop  offset="0.9441" style="stop-color:#000000"/>
	</radialGradient>
	<path class="st25" d="M1352.8,897.5c-2.4,4.7-5.6,7.4-10,7.4c-4.4,0-7.7-2.8-10-7.5c-1.5-3.1-2.8-7.6-3.6-13.6
		c-5.9,0-11.7-0.1-17.6-0.2c0.3,0.7,0.7,1.4,1.1,2.1c2.5,4.2,5.9,8.4,9.7,12.3c3.4,3.5,6.7,6.5,10.1,8.6c3.4,2.1,6.7,3.4,10.3,3.4
		c3.6,0,6.9-1.1,10.3-3.2s6.7-5,10.1-8.5c3.8-4,7.3-8.2,9.8-12.5c0.6-1.1,1.2-2.2,1.7-3.2c-6,0.3-12.1,0.5-18.1,0.7
		C1355.7,889.6,1354.3,894.4,1352.8,897.5z"/>
	
		<radialGradient id="SVGID_27_" cx="1407.51" cy="1690.5439" r="30.3792" gradientTransform="matrix(1 0 0 -1 0 2551.1812)" gradientUnits="userSpaceOnUse">
		<stop  offset="0" style="stop-color:#931C13"/>
		<stop  offset="0.1904" style="stop-color:#901B13"/>
		<stop  offset="0.3544" style="stop-color:#851911"/>
		<stop  offset="0.5088" style="stop-color:#73160F"/>
		<stop  offset="0.6573" style="stop-color:#5A110C"/>
		<stop  offset="0.8015" style="stop-color:#3A0B07"/>
		<stop  offset="0.9407" style="stop-color:#130402"/>
		<stop  offset="1" style="stop-color:#000000"/>
	</radialGradient>
	<path class="st26" d="M1428.3,846.4c-7.7-6.8-15.9-12.3-26.1-11.8c-9,0.5-17.9,3-26.9,7.6c-0.7,1.3-1.4,2.6-2,3.9
		c2.8-1,4.6-1,5.2-0.5c0.6,0.6,0.5,2.2-0.2,5c-0.3,1.5-0.7,2.9-0.9,4.3c5.6,0.5,11.1,1.8,16.4,3.8c0.2-3.5,0.4-7,0.7-10.6
		c0.3-3.4,1.1-5.6,2.2-6.7c1.1-1.1,3.2-1.8,6.3-1.9c6.1-0.2,10.6,2.6,13.8,7.2c3.1,4.6,5.7,12.3,5.8,23.2c0,5.4-0.7,10-1.7,13.9
		c0.2,0.2,0.3,0.5,0.5,0.7c4.6,0.7,9.1,1.4,13.6,2c4.1-5.1,6.8-10.5,6.8-16.6C1441.7,861,1435.7,853.4,1428.3,846.4z"/>
	
		<radialGradient id="SVGID_28_" cx="1404.0852" cy="1656.1831" r="23.7216" gradientTransform="matrix(1 0 0 -1 0 2551.1812)" gradientUnits="userSpaceOnUse">
		<stop  offset="0" style="stop-color:#931C13"/>
		<stop  offset="0.1904" style="stop-color:#901B13"/>
		<stop  offset="0.3544" style="stop-color:#851911"/>
		<stop  offset="0.5088" style="stop-color:#73160F"/>
		<stop  offset="0.6573" style="stop-color:#5A110C"/>
		<stop  offset="0.8015" style="stop-color:#3A0B07"/>
		<stop  offset="0.9407" style="stop-color:#130402"/>
		<stop  offset="1" style="stop-color:#000000"/>
	</radialGradient>
	<path class="st27" d="M1420.8,886.7c-1,3.9-2.5,7-4.1,9.4c-3.2,4.6-7.7,7.4-13.8,7.3c-3.1-0.1-5.2-0.8-6.3-1.9
		c-1.1-1.1-1.9-3.4-2.2-6.8c-0.4-4.3-0.6-8.6-0.7-12.9c-5.7,0.3-11.4,0.6-17.1,0.8c0.4,3.3,1,6.5,1.8,9.8c0.7,2.7,0.8,4.4,0.2,5
		s-2.3,0.5-5.2-0.5c0.6,1.3,1.3,2.6,2,3.9c9,4.6,17.9,7.2,26.9,7.6c10.1,0.5,18.4-4.9,26.1-11.8c2.4-2.3,4.7-4.6,6.6-7
		c-4.5-0.7-9.1-1.3-13.6-2C1421.1,887.2,1420.9,886.9,1420.8,886.7z"/>
	
		<radialGradient id="SVGID_29_" cx="1402.8217" cy="1678.5011" r="9.362" gradientTransform="matrix(1 0 0 -1 0 2551.1812)" gradientUnits="userSpaceOnUse">
		<stop  offset="0" style="stop-color:#931C13"/>
		<stop  offset="0.1904" style="stop-color:#901B13"/>
		<stop  offset="0.3544" style="stop-color:#851911"/>
		<stop  offset="0.5088" style="stop-color:#73160F"/>
		<stop  offset="0.6573" style="stop-color:#5A110C"/>
		<stop  offset="0.8015" style="stop-color:#3A0B07"/>
		<stop  offset="0.9407" style="stop-color:#130402"/>
		<stop  offset="1" style="stop-color:#000000"/>
	</radialGradient>
	<path class="st28" d="M1411.6,867.4c-5.5-1.9-11.2-3.3-17-4.5c-0.8,6.6-0.8,13.1-0.1,19.7c5.7-0.3,11.4-0.5,17.1-0.8
		C1411.5,876.9,1411.5,872.1,1411.6,867.4z"/>
	
		<radialGradient id="SVGID_30_" cx="1385.1799" cy="1688.576" r="6.9433" gradientTransform="matrix(1 0 0 -1 0 2551.1812)" gradientUnits="userSpaceOnUse">
		<stop  offset="0" style="stop-color:#931C13"/>
		<stop  offset="0.1904" style="stop-color:#901B13"/>
		<stop  offset="0.3544" style="stop-color:#851911"/>
		<stop  offset="0.5088" style="stop-color:#73160F"/>
		<stop  offset="0.6573" style="stop-color:#5A110C"/>
		<stop  offset="0.8015" style="stop-color:#3A0B07"/>
		<stop  offset="0.9407" style="stop-color:#130402"/>
		<stop  offset="1" style="stop-color:#000000"/>
	</radialGradient>
	<path class="st29" d="M1393.8,861.6c-5.3-2-10.8-3.2-16.4-3.8c-0.3,1.7-0.6,3.3-0.8,5c5.8,1.2,11.5,2.6,17,4.5
		C1393.6,865.4,1393.7,863.5,1393.8,861.6z"/>
	
		<radialGradient id="SVGID_31_" cx="752.6898" cy="1416.4961" r="24.6343" gradientTransform="matrix(-0.9665 -0.2565 -0.2565 0.9665 2564.2952 -312.927)" gradientUnits="userSpaceOnUse">
		<stop  offset="0" style="stop-color:#931C13"/>
		<stop  offset="0.1797" style="stop-color:#901B13"/>
		<stop  offset="0.3346" style="stop-color:#851911"/>
		<stop  offset="0.4804" style="stop-color:#73160F"/>
		<stop  offset="0.6205" style="stop-color:#5A110C"/>
		<stop  offset="0.7568" style="stop-color:#3A0B07"/>
		<stop  offset="0.8882" style="stop-color:#130402"/>
		<stop  offset="0.9441" style="stop-color:#000000"/>
	</radialGradient>
	<path class="st30" d="M1478,873.2c-3-2.1-6-4.2-9.1-6.1c-4.2-2.6-6.9-4.8-8.2-6.7c-1.3-1.9-1.4-4-0.5-6.4c1-2.7,3.1-4.8,5.9-6.6
		c2.8-1.7,5.8-2.5,8.9-1.9c4.2,0.8,7.3,4.3,10.1,9.7c2.7,5.4,5.1,12.5,6.4,20c0.9,0.3,1.8,0.7,2.7,1.1c1-0.2,2-0.4,3.1-0.6
		c0.6-7,0.5-14.5-0.4-22.3c-1.1-1.2-2.1-2.4-3.2-3.5c-0.1,1.2-0.4,2.1-0.9,2.5c-0.5,0.4-1.1,0.4-1.8-0.1c-0.7-0.5-1.8-1.7-3.1-3.3
		c-1.4-1.7-2.4-2.8-3-3.4c-1.8-1.8-3.3-3.1-4.6-3.8s-2.5-1.3-3.8-1.5c-5.3-1-10.9,1.8-16.8,5.7c-5.8,4-10.3,8.2-12.5,13.1
		c-1.9,4.3-1.4,8.2,0.9,12.4c2,3.6,5.5,7.5,10.2,11.1c8.6-0.8,17.1-2.5,25.7-4.2C1482.4,876.6,1480.4,874.8,1478,873.2z"/>
	
		<radialGradient id="SVGID_32_" cx="746.7433" cy="1451.7859" r="21.4873" gradientTransform="matrix(-0.9665 -0.2565 -0.2565 0.9665 2564.2952 -312.927)" gradientUnits="userSpaceOnUse">
		<stop  offset="0" style="stop-color:#931C13"/>
		<stop  offset="0.1797" style="stop-color:#901B13"/>
		<stop  offset="0.3346" style="stop-color:#851911"/>
		<stop  offset="0.4804" style="stop-color:#73160F"/>
		<stop  offset="0.6205" style="stop-color:#5A110C"/>
		<stop  offset="0.7568" style="stop-color:#3A0B07"/>
		<stop  offset="0.8882" style="stop-color:#130402"/>
		<stop  offset="0.9441" style="stop-color:#000000"/>
	</radialGradient>
	<path class="st31" d="M1451.8,910.6c0.2-1,0.6-1.7,1.1-2c0.5-0.3,1-0.3,1.7,0.1c0.2,0.1,0.5,0.3,0.8,0.6c0.3,0.3,0.5,0.4,0.6,0.5
		c0.1,0,0.4,0.5,1.1,1.3c0.7,0.8,1.3,1.6,2,2.3c1.4,1.5,2.7,2.5,3.8,3.2s2.3,1.1,3.4,1.3c5.2,1,10.4-1.5,15.8-5.2
		c5.4-3.8,9.6-7.8,11.6-12.5c1.6-3.8,1.3-7.4-0.8-11.3c-1.1-2-2.6-4-4.4-5.9c-8.5,1.7-17.1,3.4-25.7,4.2c0.6,0.5,1.2,0.9,1.8,1.3
		c3.1,2.1,6.1,4.1,9.1,5.9c2.9,1.8,5.1,3.6,6.3,5.5c1.3,1.9,1.5,3.8,0.8,5.7c-0.9,2.3-2.7,4.2-5.2,5.6c-2.5,1.4-5.2,2-8.2,1.4
		c-3.4-0.7-6-3.2-8.2-7.2c-2.2-4-4.2-9.5-5.8-16c-1.4-0.6-2.7-1.2-4.1-1.9c-0.1,0-0.2,0-0.2,0c-0.6,6.6-0.6,13.4-0.2,20.4
		C1449.9,909,1450.8,909.9,1451.8,910.6z"/>
</g>
</svg>
