<?xml version="1.0" encoding="utf-8"?>
<!-- Generator: Adobe Illustrator 23.0.1, SVG Export Plug-In . SVG Version: 6.00 Build 0)  -->
<svg version="1.1" id="Layer_1" xmlns="http://www.w3.org/2000/svg" xmlns:xlink="http://www.w3.org/1999/xlink" x="0px" y="0px"
	 viewBox="0 0 245.9 42.1" style="enable-background:new 0 0 245.9 42.1;" xml:space="preserve">
<style type="text/css">
	.st0{fill:url(#SVGID_1_);}
	.st1{fill:url(#SVGID_2_);}
	.st2{fill:url(#SVGID_3_);}
	.st3{fill:url(#SVGID_4_);}
	.st4{fill:url(#SVGID_5_);}
	.st5{fill:url(#SVGID_6_);}
	.st6{fill:url(#SVGID_7_);}
	.st7{fill:url(#SVGID_8_);}
	.st8{fill:url(#SVGID_9_);}
	.st9{fill:url(#SVGID_10_);}
	.st10{fill:url(#SVGID_11_);}
	.st11{fill:url(#SVGID_12_);}
	.st12{fill:url(#SVGID_13_);}
	.st13{fill:url(#SVGID_14_);}
	.st14{fill:url(#SVGID_15_);}
	.st15{fill:url(#SVGID_16_);}
	.st16{fill:url(#SVGID_17_);}
	.st17{fill:url(#SVGID_18_);}
	.st18{fill:url(#SVGID_19_);}
	.st19{fill:url(#SVGID_20_);}
	.st20{fill:url(#SVGID_21_);}
	.st21{fill:url(#SVGID_22_);}
	.st22{fill:url(#SVGID_23_);}
	.st23{fill:url(#SVGID_24_);}
	.st24{fill:url(#SVGID_25_);}
	.st25{fill:url(#SVGID_26_);}
	.st26{fill:url(#SVGID_27_);}
	.st27{fill:url(#SVGID_28_);}
	.st28{fill:url(#SVGID_29_);}
	.st29{fill:url(#SVGID_30_);}
	.st30{fill:url(#SVGID_31_);}
	.st31{fill:url(#SVGID_32_);}
</style>
<g>
	
		<radialGradient id="SVGID_1_" cx="26.5928" cy="-1247.7562" r="9.713" gradientTransform="matrix(1 0 0 1 0 1271.1812)" gradientUnits="userSpaceOnUse">
		<stop  offset="0" style="stop-color:#931C13"/>
		<stop  offset="0.1797" style="stop-color:#901B13"/>
		<stop  offset="0.3346" style="stop-color:#851911"/>
		<stop  offset="0.4804" style="stop-color:#73160F"/>
		<stop  offset="0.6205" style="stop-color:#5A110C"/>
		<stop  offset="0.7568" style="stop-color:#3A0B07"/>
		<stop  offset="0.8882" style="stop-color:#130402"/>
		<stop  offset="0.9441" style="stop-color:#000000"/>
	</radialGradient>
	<path class="st0" d="M24.1,19.7c-0.6,0-1.1,0-1.7,0c0-0.5,0-1,0.1-1.6c-1.6-1.1-3.2-2.2-4.7-3.4c0,0.1,0,0.1,0,0.2
		c-1,4-1,8.1-0.1,12.1c0.2,0.9,0.2,1.4,0,1.6c-0.2,0.2-0.7,0.2-1.7-0.1c0.2,0.4,0.4,0.8,0.6,1.2c3,1.4,6,2.2,9,2.3c0-0.5,0-1,0-1.5
		c-1.1-0.2-1.8-0.4-2.2-0.7c-0.3-0.3-0.6-1-0.6-1.9c-0.2-2.2-0.3-4.4-0.3-6.6c0.4,0,0.9,0,1.3,0c0.9,0,1.6,0.1,2.2,0.2
		c0.6,0.2,1,0.4,1.4,0.7c0.8,0.7,1.2,2.2,1.2,4.3c0,0.1,0,0.2,0,0.4c0,2,0.2,3.4,0.6,4.1c0.3,0.4,0.6,0.7,1.1,0.9
		c0.5,0.2,1,0.1,1.7-0.1c1.1-0.3,2.2-1.1,3.1-2c0.9-0.9,1.7-2,2.1-3.2c0.1-0.2,0.1-0.3,0.1-0.3s0-0.2,0-0.2
		c-0.4,0.1-0.9,0.2-1.3,0.2c-0.2,0.8-0.5,1.4-0.8,1.9c-0.3,0.5-0.7,0.8-1.1,0.9c-0.2,0.1-0.4,0-0.5-0.1c-0.1-0.1-0.1-0.4-0.1-0.9
		c0-0.2,0-0.5,0.1-0.9c0.1-1.2,0.1-2.1-0.1-2.8c0-0.2-0.1-0.3-0.1-0.4c-2.9-0.9-5.7-2.4-8.6-4.2C24.5,19.7,24.3,19.7,24.1,19.7z"/>
	
		<radialGradient id="SVGID_2_" cx="26.0228" cy="-1255.562" r="8.2283" gradientTransform="matrix(1 0 0 1 0 1271.1812)" gradientUnits="userSpaceOnUse">
		<stop  offset="0" style="stop-color:#931C13"/>
		<stop  offset="0.1797" style="stop-color:#901B13"/>
		<stop  offset="0.3346" style="stop-color:#851911"/>
		<stop  offset="0.4804" style="stop-color:#73160F"/>
		<stop  offset="0.6205" style="stop-color:#5A110C"/>
		<stop  offset="0.7568" style="stop-color:#3A0B07"/>
		<stop  offset="0.8882" style="stop-color:#130402"/>
		<stop  offset="0.9441" style="stop-color:#000000"/>
	</radialGradient>
	<path class="st1" d="M32.4,20.7c-0.9-0.6-2.1-1.2-3.6-1.5c2.3-0.2,4.1-0.8,5.2-1.5c1.1-0.7,1.6-1.7,1.3-2.9c-0.3-1.6-1.5-3-3-4.2
		c-1.6-1.1-3.5-2-6.2-1.9c-2.9,0.1-5.9,0.9-8.8,2.5c-0.2,0.4-0.4,0.8-0.6,1.2c0.9-0.3,1.4-0.3,1.6-0.2c0.2,0.2,0.2,0.6,0,1.4
		c1.5,1.1,3.1,2.3,4.7,3.4c0.1-1.3,0.1-2.7,0.2-4c0.1-1,0.3-1.7,0.7-2.1c0.3-0.4,1-0.6,2.1-0.7c1.2,0,2,0.4,2.7,1.2
		c0.7,0.8,1.1,1.8,1.2,3.2c0.1,1.4-0.3,2.4-1.1,3c-0.7,0.5-1.9,0.8-3.6,0.9c2.8,1.8,5.7,3.3,8.6,4.2C33.6,21.9,33.1,21.2,32.4,20.7z
		"/>
	
		<radialGradient id="SVGID_3_" cx="464.3124" cy="-1120.9274" r="3.7085" gradientTransform="matrix(0.9823 -0.1873 0.1873 0.9823 -193.8935 1201.3357)" gradientUnits="userSpaceOnUse">
		<stop  offset="0" style="stop-color:#931C13"/>
		<stop  offset="0.1797" style="stop-color:#901B13"/>
		<stop  offset="0.3346" style="stop-color:#851911"/>
		<stop  offset="0.4804" style="stop-color:#73160F"/>
		<stop  offset="0.6205" style="stop-color:#5A110C"/>
		<stop  offset="0.7568" style="stop-color:#3A0B07"/>
		<stop  offset="0.8882" style="stop-color:#130402"/>
		<stop  offset="0.9441" style="stop-color:#000000"/>
	</radialGradient>
	<path class="st2" d="M53.3,11.7c0.2-0.2,0.7-0.2,1.7-0.1c-0.2-0.4-0.5-0.7-0.8-1.1c-1.9-0.6-3.8-0.9-5.7-0.9
		c0.2,0.5,0.3,0.9,0.5,1.4c0.8,0,1.5,0.2,1.8,0.5c0.4,0.3,0.8,0.9,1.1,1.8c0.5,1.4,1,2.7,1.3,4.1c0.5-0.4,1-0.8,1.5-1.3
		c-0.3-1-0.7-1.9-1.1-2.8C53.3,12.5,53.2,11.9,53.3,11.7z"/>
	
		<radialGradient id="SVGID_4_" cx="-299.5894" cy="-1300.4352" r="8.0622" gradientTransform="matrix(0.9888 0.1493 -0.1493 0.9888 147.4837 1355.5854)" gradientUnits="userSpaceOnUse">
		<stop  offset="0" style="stop-color:#931C13"/>
		<stop  offset="0.1797" style="stop-color:#901B13"/>
		<stop  offset="0.3346" style="stop-color:#851911"/>
		<stop  offset="0.4804" style="stop-color:#73160F"/>
		<stop  offset="0.6205" style="stop-color:#5A110C"/>
		<stop  offset="0.7568" style="stop-color:#3A0B07"/>
		<stop  offset="0.8882" style="stop-color:#130402"/>
		<stop  offset="0.9441" style="stop-color:#000000"/>
	</radialGradient>
	<path class="st3" d="M52.3,24.4c-0.4,2.1-1.4,3.5-2.4,4.5c-1.1,1-2.4,1.5-3.9,1.4c-1.5-0.2-2.5-0.9-3.2-2.1
		c-0.6-1.1-0.8-2.7-0.6-4.8c-1.8,0.2-3.6,0-5.3-0.5c0.1,2.2,0.9,4,1.9,5.6c1.3,1.8,2.9,3.4,5.3,3.7c2.4,0.4,4.4-0.5,6.2-1.9
		c1.7-1.4,3.3-3.4,3.9-6.2c0.4-1.7,0.6-3.4,0.6-5.2c-0.6,0.2-1.2,0.5-1.8,0.7C52.9,21.3,52.7,22.9,52.3,24.4z"/>
	
		<radialGradient id="SVGID_5_" cx="40.0506" cy="-1255.8068" r="6.0701" gradientTransform="matrix(1 0 0 1 0 1271.1812)" gradientUnits="userSpaceOnUse">
		<stop  offset="0" style="stop-color:#931C13"/>
		<stop  offset="0.1797" style="stop-color:#901B13"/>
		<stop  offset="0.3346" style="stop-color:#851911"/>
		<stop  offset="0.4804" style="stop-color:#73160F"/>
		<stop  offset="0.6205" style="stop-color:#5A110C"/>
		<stop  offset="0.7568" style="stop-color:#3A0B07"/>
		<stop  offset="0.8882" style="stop-color:#130402"/>
		<stop  offset="0.9441" style="stop-color:#000000"/>
	</radialGradient>
	<path class="st4" d="M42,22.2c0-0.1,0-0.2,0-0.4c-0.1-3.2,0-6.4,0.2-9.6c0.1-1,0.3-1.7,0.6-2c0.3-0.3,0.8-0.6,1.7-0.7
		c0-0.5,0-1,0.1-1.5c-2.8,0.2-5.6,1-8.3,2.4c-0.2,0.4-0.4,0.8-0.6,1.2c0.9-0.3,1.5-0.4,1.7-0.2c0.2,0.2,0.2,0.7-0.1,1.6
		c-0.6,2.7-0.9,5.4-0.7,8.1c0,0.5,0.1,0.9,0.2,1.4C38.5,22.8,40.3,22.7,42,22.2z"/>
	
		<radialGradient id="SVGID_6_" cx="275.8874" cy="-1188.9266" r="6.9285" gradientTransform="matrix(0.9954 -9.610000e-02 9.610000e-02 0.9954 -100.1563 1233.397)" gradientUnits="userSpaceOnUse">
		<stop  offset="0" style="stop-color:#931C13"/>
		<stop  offset="0.1797" style="stop-color:#901B13"/>
		<stop  offset="0.3346" style="stop-color:#851911"/>
		<stop  offset="0.4804" style="stop-color:#73160F"/>
		<stop  offset="0.6205" style="stop-color:#5A110C"/>
		<stop  offset="0.7568" style="stop-color:#3A0B07"/>
		<stop  offset="0.8882" style="stop-color:#130402"/>
		<stop  offset="0.9441" style="stop-color:#000000"/>
	</radialGradient>
	<path class="st5" d="M58.1,27.8c0.2,0.9,0.1,1.5-0.1,1.7c-0.2,0.2-0.8,0.1-1.8-0.6c0.1,0.4,0.2,0.8,0.4,1.2
		c3.1,2.9,5.9,2.7,8.4-0.6c0.1-0.4,0.1-0.8,0.2-1.2c-0.8,0.8-1.4,1-1.7,0.8c-0.2-0.1-0.4-0.7-0.4-1.7c-0.1-4.3-0.5-8.6-1.2-12.9
		c-1.7,0.4-3.4,1.1-5,2C57.1,20.3,57.5,24.1,58.1,27.8z"/>
	
		<radialGradient id="SVGID_7_" cx="59.8764" cy="-1259.3442" r="3.8824" gradientTransform="matrix(1 0 0 1 0 1271.1812)" gradientUnits="userSpaceOnUse">
		<stop  offset="0" style="stop-color:#931C13"/>
		<stop  offset="0.1797" style="stop-color:#901B13"/>
		<stop  offset="0.3346" style="stop-color:#851911"/>
		<stop  offset="0.4804" style="stop-color:#73160F"/>
		<stop  offset="0.6205" style="stop-color:#5A110C"/>
		<stop  offset="0.7568" style="stop-color:#3A0B07"/>
		<stop  offset="0.8882" style="stop-color:#130402"/>
		<stop  offset="0.9441" style="stop-color:#000000"/>
	</radialGradient>
	<path class="st6" d="M62.7,11.5c0.2-0.2,0.8,0,1.7,0.7c-0.1-0.4-0.2-0.8-0.3-1.2c-2.8-3-5.6-3-8.4,0.2c-0.1,0.4-0.2,0.8-0.3,1.2
		c0.9-0.7,1.5-0.9,1.7-0.7c0.2,0.2,0.3,0.7,0.3,1.6c0,0.6-0.1,1.2-0.1,1.7c1.7-0.7,3.4-1.2,5.2-1.5c0-0.1,0-0.2,0-0.3
		C62.3,12.2,62.4,11.6,62.7,11.5z"/>
	
		<radialGradient id="SVGID_8_" cx="67.9099" cy="-1247.8251" r="5.8058" gradientTransform="matrix(1 0 0 1 0 1271.1812)" gradientUnits="userSpaceOnUse">
		<stop  offset="0" style="stop-color:#931C13"/>
		<stop  offset="0.1797" style="stop-color:#901B13"/>
		<stop  offset="0.3346" style="stop-color:#851911"/>
		<stop  offset="0.4804" style="stop-color:#73160F"/>
		<stop  offset="0.6205" style="stop-color:#5A110C"/>
		<stop  offset="0.7568" style="stop-color:#3A0B07"/>
		<stop  offset="0.8882" style="stop-color:#130402"/>
		<stop  offset="0.9441" style="stop-color:#000000"/>
	</radialGradient>
	<path class="st7" d="M66.4,26.2c0.2,0.9,0.2,1.4,0,1.6c-0.2,0.2-0.8,0.1-1.9-0.2c0.2,0.4,0.4,0.8,0.6,1.2c2.1,1,4.1,1.7,6.2,2.1
		c-0.1-0.5-0.2-1-0.2-1.5c-1.1-0.2-1.8-0.6-2.2-0.9c-0.3-0.3-0.7-1-0.8-1.9c-0.4-2.4-0.6-4.7-0.5-7.1c-0.5-1.2-0.9-2.5-1.5-3.5
		C65.5,19.3,65.6,22.8,66.4,26.2z"/>
	
		<radialGradient id="SVGID_9_" cx="79.8444" cy="-1244.6207" r="3.7707" gradientTransform="matrix(1 0 0 1 0 1271.1812)" gradientUnits="userSpaceOnUse">
		<stop  offset="0" style="stop-color:#931C13"/>
		<stop  offset="0.1797" style="stop-color:#901B13"/>
		<stop  offset="0.3346" style="stop-color:#851911"/>
		<stop  offset="0.4804" style="stop-color:#73160F"/>
		<stop  offset="0.6205" style="stop-color:#5A110C"/>
		<stop  offset="0.7568" style="stop-color:#3A0B07"/>
		<stop  offset="0.8882" style="stop-color:#130402"/>
		<stop  offset="0.9441" style="stop-color:#000000"/>
	</radialGradient>
	<path class="st8" d="M76.3,25.1c1.4,2,2.7,3.8,3.4,5.4c0.7-0.2,1.3-0.4,1.9-0.6c0.9-2.5,1.5-4.9,1.7-7.4c-1.3,0.6-2.7,1.2-4.1,1.8
		C78.4,24.7,77.3,25,76.3,25.1z"/>
	
		<radialGradient id="SVGID_10_" cx="74.6419" cy="-1255.4038" r="9.0864" gradientTransform="matrix(1 0 0 1 0 1271.1812)" gradientUnits="userSpaceOnUse">
		<stop  offset="0" style="stop-color:#931C13"/>
		<stop  offset="0.1797" style="stop-color:#901B13"/>
		<stop  offset="0.3346" style="stop-color:#851911"/>
		<stop  offset="0.4804" style="stop-color:#73160F"/>
		<stop  offset="0.6205" style="stop-color:#5A110C"/>
		<stop  offset="0.7568" style="stop-color:#3A0B07"/>
		<stop  offset="0.8882" style="stop-color:#130402"/>
		<stop  offset="0.9441" style="stop-color:#000000"/>
	</radialGradient>
	<path class="st9" d="M82.8,12.3c-0.2-0.9-0.2-1.5,0-1.6s0.8-0.1,1.9,0.2c-0.2-0.4-0.4-0.8-0.6-1.2c-2-1-4.1-1.7-6.1-2
		c0.1,0.5,0.2,1,0.2,1.5c1.1,0.2,1.8,0.6,2.2,0.9c0.4,0.3,0.7,1,0.8,1.9c0.6,3.4,0.7,6.7,0.4,10.1C78.2,17.8,73.3,12,71,7.8
		c-1.9,0.4-3.8,1.1-5.7,2.1c-0.2,0.4-0.4,0.8-0.6,1.2c1-0.4,1.7-0.4,1.9-0.2s0.2,0.7,0,1.6c-0.2,0.6-0.3,1.2-0.4,1.9
		c0.6,1,1,2.2,1.5,3.5c0-1.6,0.2-3.2,0.4-4.9c2.2,3.1,5.6,7.2,8.3,10.9c1-0.1,2.1-0.4,3-0.8c1.4-0.5,2.7-1.1,4.1-1.8
		C83.7,18.3,83.5,15.3,82.8,12.3z"/>
	
		<radialGradient id="SVGID_11_" cx="99.0366" cy="-1255.2053" r="3.005900e-02" gradientTransform="matrix(1 0 0 1 0 1271.1812)" gradientUnits="userSpaceOnUse">
		<stop  offset="0" style="stop-color:#931C13"/>
		<stop  offset="0.1797" style="stop-color:#901B13"/>
		<stop  offset="0.3346" style="stop-color:#851911"/>
		<stop  offset="0.4804" style="stop-color:#73160F"/>
		<stop  offset="0.6205" style="stop-color:#5A110C"/>
		<stop  offset="0.7568" style="stop-color:#3A0B07"/>
		<stop  offset="0.8882" style="stop-color:#130402"/>
		<stop  offset="0.9441" style="stop-color:#000000"/>
	</radialGradient>
	<path class="st10" d="M99.1,16L99.1,16C99,16,99,16,99.1,16C99,16,99,16,99.1,16z"/>
	
		<radialGradient id="SVGID_12_" cx="84.1877" cy="-1249.083" r="0.3921" gradientTransform="matrix(1 0 0 1 0 1271.1812)" gradientUnits="userSpaceOnUse">
		<stop  offset="0" style="stop-color:#931C13"/>
		<stop  offset="0.1797" style="stop-color:#901B13"/>
		<stop  offset="0.3346" style="stop-color:#851911"/>
		<stop  offset="0.4804" style="stop-color:#73160F"/>
		<stop  offset="0.6205" style="stop-color:#5A110C"/>
		<stop  offset="0.7568" style="stop-color:#3A0B07"/>
		<stop  offset="0.8882" style="stop-color:#130402"/>
		<stop  offset="0.9441" style="stop-color:#000000"/>
	</radialGradient>
	<path class="st11" d="M83.7,21.8c0,0.2,0.1,0.4,0.1,0.5c0.3-0.2,0.6-0.3,0.9-0.4C84.4,21.9,84,21.9,83.7,21.8z"/>
	
		<radialGradient id="SVGID_13_" cx="735.8707" cy="3055.6228" r="7.6929" gradientTransform="matrix(-0.7818 -0.6235 0.6235 -0.7818 -1235.0342 2863.0315)" gradientUnits="userSpaceOnUse">
		<stop  offset="0" style="stop-color:#931C13"/>
		<stop  offset="0.1797" style="stop-color:#901B13"/>
		<stop  offset="0.3346" style="stop-color:#851911"/>
		<stop  offset="0.4804" style="stop-color:#73160F"/>
		<stop  offset="0.6205" style="stop-color:#5A110C"/>
		<stop  offset="0.7568" style="stop-color:#3A0B07"/>
		<stop  offset="0.8882" style="stop-color:#130402"/>
		<stop  offset="0.9441" style="stop-color:#000000"/>
	</radialGradient>
	<path class="st12" d="M94.9,18.8c-0.6-1-1.2-1.9-1.8-2.9c-0.9-1.3-1.4-2.2-1.5-2.9s0.1-1.3,0.7-1.9c0.6-0.6,1.5-1,2.5-1.1
		c1-0.1,2,0,2.8,0.6c1.1,0.7,1.6,2.1,1.7,4c0.1,1.9-0.1,4.2-0.7,6.5c0.2,0.2,0.4,0.4,0.6,0.6c0.3,0.1,0.6,0.2,0.9,0.2
		c1.1-1.9,2-4.1,2.7-6.4c-0.2-0.5-0.3-0.9-0.5-1.4c-0.2,0.3-0.4,0.5-0.6,0.6c-0.2,0.1-0.4,0-0.5-0.2s-0.3-0.7-0.5-1.3
		s-0.3-1.1-0.4-1.4c-0.3-0.7-0.6-1.3-0.8-1.7c-0.2-0.3-0.6-0.7-0.9-0.9c-1.4-0.9-3.3-0.9-5.5-0.5c-2.2,0.4-4,1-5.2,2.2
		c-1.1,1-1.4,2.2-1.3,3.7c0.1,1.3,0.6,2.8,1.5,4.4c2.6,0.8,5.2,1.4,7.9,2C95.7,20.3,95.3,19.6,94.9,18.8z"/>
	
		<radialGradient id="SVGID_14_" cx="734.0023" cy="3044.5952" r="6.716" gradientTransform="matrix(-0.7818 -0.6235 0.6235 -0.7818 -1235.0342 2863.0315)" gradientUnits="userSpaceOnUse">
		<stop  offset="0" style="stop-color:#931C13"/>
		<stop  offset="0.1797" style="stop-color:#901B13"/>
		<stop  offset="0.3346" style="stop-color:#851911"/>
		<stop  offset="0.4804" style="stop-color:#73160F"/>
		<stop  offset="0.6205" style="stop-color:#5A110C"/>
		<stop  offset="0.7568" style="stop-color:#3A0B07"/>
		<stop  offset="0.8882" style="stop-color:#130402"/>
		<stop  offset="0.9441" style="stop-color:#000000"/>
	</radialGradient>
	<path class="st13" d="M82.7,26.2c0.2-0.2,0.4-0.4,0.6-0.4c0.2,0,0.3,0.1,0.5,0.2c0,0.1,0.1,0.2,0.1,0.3c0.1,0.1,0.1,0.2,0.1,0.2
		c0,0,0.1,0.2,0.1,0.5c0.1,0.3,0.2,0.6,0.3,0.9c0.2,0.6,0.5,1.1,0.7,1.4s0.5,0.6,0.8,0.8c1.3,0.9,3.2,0.9,5.2,0.5
		c2-0.4,3.7-1,4.9-2.1c1-0.9,1.3-1.9,1.2-3.3c-0.1-0.7-0.2-1.5-0.5-2.2c-2.7-0.6-5.3-1.2-7.9-2c0.1,0.2,0.2,0.4,0.4,0.6
		c0.6,1,1.2,1.9,1.8,2.8c0.6,0.9,1,1.7,1.1,2.4c0.1,0.7,0,1.2-0.5,1.7c-0.5,0.6-1.3,0.9-2.2,1c-0.9,0.1-1.7-0.1-2.5-0.6
		c-0.9-0.6-1.3-1.7-1.4-3.1c-0.1-1.4,0-3.2,0.3-5.3c-0.3-0.3-0.6-0.7-0.9-1.1c0,0,0,0-0.1,0c-1,1.8-1.8,3.7-2.6,5.8
		C82.3,25.5,82.5,25.9,82.7,26.2z"/>
	
		<radialGradient id="SVGID_15_" cx="108.3417" cy="-1244.6659" r="7.6014" gradientTransform="matrix(1.014 0 0 1 4.1334 1271.1812)" gradientUnits="userSpaceOnUse">
		<stop  offset="0" style="stop-color:#931C13"/>
		<stop  offset="0.1797" style="stop-color:#901B13"/>
		<stop  offset="0.3346" style="stop-color:#851911"/>
		<stop  offset="0.4804" style="stop-color:#73160F"/>
		<stop  offset="0.6205" style="stop-color:#5A110C"/>
		<stop  offset="0.7568" style="stop-color:#3A0B07"/>
		<stop  offset="0.8882" style="stop-color:#130402"/>
		<stop  offset="0.9441" style="stop-color:#000000"/>
	</radialGradient>
	<path class="st14" d="M117.8,25c-0.1-0.1-0.1-0.1-0.2-0.2c-0.1,2.3-0.6,4-1.1,5c-0.6,1.2-1.4,1.9-2.6,1.9s-2-0.7-2.6-1.9
		c-0.6-1.2-1.1-3.2-1.1-6.2c0-1,0.1-1.9,0.2-2.7c-1.1-0.2-2.1-0.4-3.2-0.7c-0.3,0-0.6-0.1-0.8-0.1c-0.1,0.1-0.1,0.2-0.2,0.3
		c-0.6,1.1-1,2.1-1,3.2c0,1.1,0.4,2.2,1,3.2c0.6,1.1,1.5,2.1,2.5,3.1c0.9,0.9,1.7,1.6,2.6,2.2c0.9,0.6,1.7,0.8,2.7,0.9
		c0.9,0,1.8-0.3,2.6-0.8c0.9-0.5,1.7-1.3,2.6-2.2c1-1,1.9-2.1,2.5-3.2c0.7-1.1,1-2.1,1-3.3l0,0c-0.7,0.2-1.4,0.5-2.1,0.7
		C119.8,24.7,118.3,25.7,117.8,25z"/>
	
		<radialGradient id="SVGID_16_" cx="-615.8599" cy="-1252.3159" r="8.52" gradientTransform="matrix(0.948 0.3182 -0.3182 0.948 302.9062 1398.2111)" gradientUnits="userSpaceOnUse">
		<stop  offset="0" style="stop-color:#931C13"/>
		<stop  offset="0.1797" style="stop-color:#901B13"/>
		<stop  offset="0.3346" style="stop-color:#851911"/>
		<stop  offset="0.4804" style="stop-color:#73160F"/>
		<stop  offset="0.6205" style="stop-color:#5A110C"/>
		<stop  offset="0.7568" style="stop-color:#3A0B07"/>
		<stop  offset="0.8882" style="stop-color:#130402"/>
		<stop  offset="0.9441" style="stop-color:#000000"/>
	</radialGradient>
	<path class="st15" d="M123.9,13.8c-0.7-1.3-1.3-2.6-2.1-3.5c-0.8-0.9-1.7-1.6-2.7-2c-1.1-0.3-2.2-0.3-3.4,0
		c-1.2,0.3-2.5,0.8-3.8,1.6c-1.4,0.7-2.7,1.6-3.8,2.4c0.3,0.1,0.6,0.3,0.9,0.4c1.2,0.7,2.3,1.3,3.5,2c0.8-1.7,1.7-2.9,2.4-3.7
		c1.2-1.2,2.4-1.7,3.7-1.2c1.3,0.4,2,1.6,2.2,3.2c0.2,1.6,0,4.2-1.2,7.7c-0.2,0.5-0.3,1-0.5,1.4c0,0.1,0.1,0.2,0.1,0.3
		c0.3,1.1,2.5,0.5,3.6,0.2c0.9,0.1,1.8,0.1,2.7,0c0.4-1.3,0.4-2.7,0.1-4.2C125.3,17,124.6,15.4,123.9,13.8z"/>
	
		<radialGradient id="SVGID_17_" cx="136.1613" cy="-1256.9447" r="7.7126" gradientTransform="matrix(1 0 0 1 0 1271.1812)" gradientUnits="userSpaceOnUse">
		<stop  offset="0" style="stop-color:#931C13"/>
		<stop  offset="0.1797" style="stop-color:#901B13"/>
		<stop  offset="0.3346" style="stop-color:#851911"/>
		<stop  offset="0.4804" style="stop-color:#73160F"/>
		<stop  offset="0.6205" style="stop-color:#5A110C"/>
		<stop  offset="0.7568" style="stop-color:#3A0B07"/>
		<stop  offset="0.8882" style="stop-color:#130402"/>
		<stop  offset="0.9441" style="stop-color:#000000"/>
	</radialGradient>
	<path class="st16" d="M133.3,17.9c0-1.7,0.1-3.3,0.2-5c0.1-1.1,0.3-1.8,0.7-2.1c0.4-0.3,1.2-0.5,2.3-0.5c1.8,0.1,3.3,0.9,4.6,2
		c1.2,1.1,2.3,2.6,2.9,4.4c0.6,0.1,1.1,0.2,1.7,0.2c-0.5-2-1.2-4.1-2.3-6.1c-5.3-2.8-10.7-2.7-16,0.4c-0.2,0.4-0.4,0.8-0.6,1.2
		c0.9-0.3,1.4-0.4,1.7-0.2c0.2,0.2,0.2,0.7,0,1.6c-0.4,2-0.6,4.1-0.6,6.1c1.6-0.6,3.2-1.3,4.6-1.7C132.7,18,133,17.9,133.3,17.9z"/>
	
		<radialGradient id="SVGID_18_" cx="136.9565" cy="-1254.4945" r="2.036" gradientTransform="matrix(1 0 0 1 0 1271.1812)" gradientUnits="userSpaceOnUse">
		<stop  offset="0" style="stop-color:#931C13"/>
		<stop  offset="0.1797" style="stop-color:#901B13"/>
		<stop  offset="0.3346" style="stop-color:#851911"/>
		<stop  offset="0.4804" style="stop-color:#73160F"/>
		<stop  offset="0.6205" style="stop-color:#5A110C"/>
		<stop  offset="0.7568" style="stop-color:#3A0B07"/>
		<stop  offset="0.8882" style="stop-color:#130402"/>
		<stop  offset="0.9441" style="stop-color:#000000"/>
	</radialGradient>
	<path class="st17" d="M136.9,14.3c0,1.5-0.4,2.6-1,3.3c-0.1,0.2-0.3,0.3-0.5,0.4c1.1,0.2,2.1,0.6,3.2,1.1c0-1.6-0.1-3.1-0.2-4.7
		C137.8,14.4,137.4,14.3,136.9,14.3z"/>
	
		<radialGradient id="SVGID_19_" cx="913.9551" cy="-977.5992" r="6.6027" gradientTransform="matrix(0.9356 -0.3529 0.3529 0.9356 -376.3712 1262.7028)" gradientUnits="userSpaceOnUse">
		<stop  offset="0" style="stop-color:#931C13"/>
		<stop  offset="0.1797" style="stop-color:#901B13"/>
		<stop  offset="0.3346" style="stop-color:#851911"/>
		<stop  offset="0.4804" style="stop-color:#73160F"/>
		<stop  offset="0.6205" style="stop-color:#5A110C"/>
		<stop  offset="0.7568" style="stop-color:#3A0B07"/>
		<stop  offset="0.8882" style="stop-color:#130402"/>
		<stop  offset="0.9441" style="stop-color:#000000"/>
	</radialGradient>
	<path class="st18" d="M132.7,19.7c-0.4,0.2-0.8,0.3-1.2,0.4c-0.1-0.2-0.2-0.5-0.2-0.7c-0.2,0.2-0.5,0.3-0.7,0.5
		c-1.2,0.9-2.4,2.1-3.7,3.2c0.7,1.9,1.7,3.7,2.7,5.5c0.5,0.7,0.7,1.2,0.5,1.5c-0.1,0.2-0.7,0.4-1.6,0.4c0.3,0.3,0.6,0.6,0.9,0.9
		c3.3,0.6,6.3,0.3,9-0.8c-0.2-0.5-0.3-1-0.5-1.5c-1,0.3-1.7,0.3-2.2,0.1c-0.4-0.2-0.8-0.7-1.2-1.6c-0.9-2-1.7-4-2.5-6
		c0.4-0.2,0.8-0.3,1.2-0.4c1.2-0.5,2.2-0.5,3.1,0c0.8,0.4,1.6,1.3,2.2,2.7c0.4-0.2,0.9-0.4,1.3-0.6c-0.5-1.7-1.1-3.4-1.7-5.1
		c-1.2-0.1-2.3-0.1-3.4,0.1C134.4,18.9,133.7,19.4,132.7,19.7z"/>
	
		<radialGradient id="SVGID_20_" cx="165.1048" cy="-1249.6311" r="3.8472" gradientTransform="matrix(1 0 0 1 0 1271.1812)" gradientUnits="userSpaceOnUse">
		<stop  offset="0" style="stop-color:#931C13"/>
		<stop  offset="0.1797" style="stop-color:#901B13"/>
		<stop  offset="0.3346" style="stop-color:#851911"/>
		<stop  offset="0.4804" style="stop-color:#73160F"/>
		<stop  offset="0.6205" style="stop-color:#5A110C"/>
		<stop  offset="0.7568" style="stop-color:#3A0B07"/>
		<stop  offset="0.8882" style="stop-color:#130402"/>
		<stop  offset="0.9441" style="stop-color:#000000"/>
	</radialGradient>
	<path class="st19" d="M170.3,21.2c0-0.4,0.1-0.8,0.1-1.2c-3.5,0-6.9,0.1-10.4,0.1c0,0.5,0,1,0,1.5c1.2,0.1,1.9,0.2,2.2,0.5
		c0.2,0.2,0.3,0.4,0.3,0.8c1.7,0.1,3.4,0.2,5.2,0.2c0.1-0.6,0.3-1,0.6-1.2C168.5,21.6,169.2,21.4,170.3,21.2z"/>
	
		<radialGradient id="SVGID_21_" cx="157.0448" cy="-1258.6204" r="7.785" gradientTransform="matrix(1 0 0 1 0 1271.1812)" gradientUnits="userSpaceOnUse">
		<stop  offset="0" style="stop-color:#931C13"/>
		<stop  offset="0.1797" style="stop-color:#901B13"/>
		<stop  offset="0.3346" style="stop-color:#851911"/>
		<stop  offset="0.4804" style="stop-color:#73160F"/>
		<stop  offset="0.6205" style="stop-color:#5A110C"/>
		<stop  offset="0.7568" style="stop-color:#3A0B07"/>
		<stop  offset="0.8882" style="stop-color:#130402"/>
		<stop  offset="0.9441" style="stop-color:#000000"/>
	</radialGradient>
	<path class="st20" d="M155,11.7c1-1.7,2.3-2.6,3.9-2.6c1.2,0,2.4,0.6,3.4,1.7c1.1,1.1,2.1,2.6,2.8,4.4c0.5,0,1,0.1,1.6,0.2
		c-0.2-2.3-0.7-4.6-1.5-6.9c-0.5-0.2-0.9-0.3-1.4-0.5c0.1,0.4,0,0.7-0.1,0.9c-0.1,0.2-0.3,0.3-0.5,0.2c-0.2-0.1-0.8-0.3-1.5-0.7
		c-0.1,0-0.1-0.1-0.2-0.1c-0.8-0.4-1.4-0.7-2-0.9c-0.6-0.2-1.1-0.2-1.7-0.2c-1.1,0.1-2.1,0.5-3.1,1.2c-1.1,0.7-2.1,1.6-3.2,2.7
		c-1.2,1.2-2.3,2.5-3.1,3.8c-0.5,0.8-0.8,1.6-1,2.3c2.2,0.1,4.2,0,5.9,0.7C153.4,15.2,154.1,13.2,155,11.7z"/>
	
		<radialGradient id="SVGID_22_" cx="-340.9568" cy="-1252.7295" r="8.5634" gradientTransform="matrix(0.9764 0.2161 -0.2161 0.9764 219.3562 1323.4766)" gradientUnits="userSpaceOnUse">
		<stop  offset="0" style="stop-color:#931C13"/>
		<stop  offset="0.1797" style="stop-color:#901B13"/>
		<stop  offset="0.3346" style="stop-color:#851911"/>
		<stop  offset="0.4804" style="stop-color:#73160F"/>
		<stop  offset="0.6205" style="stop-color:#5A110C"/>
		<stop  offset="0.7568" style="stop-color:#3A0B07"/>
		<stop  offset="0.8882" style="stop-color:#130402"/>
		<stop  offset="0.9441" style="stop-color:#000000"/>
	</radialGradient>
	<path class="st21" d="M162.2,27c-0.5,1.8-1.3,3.1-2.2,3.9c-0.9,0.7-1.9,1.1-3.2,0.7c-1.4-0.4-2.4-1.5-2.9-3.2
		c-0.5-1.7-0.6-4.2,0.1-7.6c0.1-0.3,0.2-0.7,0.2-1c-1.5-1-3.5-1.4-5.6-1.9c0,0.1-0.1,0.1-0.1,0.2c0.5,0.4,0.8,0.9,0.7,1.4
		c0,0.7-0.6,1.5-1.3,2c0.1,0.7,0.2,1.4,0.5,2.1c0.5,1.5,1.3,3,2.2,4.4c0.8,1.2,1.6,2.3,2.5,3.2c0.9,0.9,1.8,1.5,3,1.8
		c0.7,0.2,1.4,0.2,2.2,0.1c0.7-0.1,1.5-0.4,2.2-0.7c0.2-0.1,0.5-0.3,0.9-0.5c0.6-0.3,1-0.5,1.1-0.5c0.3,0,0.4,0.4,0.3,1.1l0,0
		c-0.1,0.3-0.1,0.7-0.2,1c0.5-0.1,1-0.1,1.5-0.2c1.2-1.9,2.2-3.8,3-5.8c0.1-0.2,0.1-0.3,0.2-0.4c-1.7-0.4-3.3-0.9-5-1.3
		C162.4,26.2,162.4,26.6,162.2,27z"/>
	
		<radialGradient id="SVGID_23_" cx="147.7688" cy="-1251.0684" r="1.2977" gradientTransform="matrix(1 0 0 1 0 1271.1812)" gradientUnits="userSpaceOnUse">
		<stop  offset="0" style="stop-color:#931C13"/>
		<stop  offset="0.1797" style="stop-color:#901B13"/>
		<stop  offset="0.3346" style="stop-color:#851911"/>
		<stop  offset="0.4804" style="stop-color:#73160F"/>
		<stop  offset="0.6205" style="stop-color:#5A110C"/>
		<stop  offset="0.7568" style="stop-color:#3A0B07"/>
		<stop  offset="0.8882" style="stop-color:#130402"/>
		<stop  offset="0.9441" style="stop-color:#000000"/>
	</radialGradient>
	<path class="st22" d="M148.4,19.6c0-0.6-0.4-1-1-1.2c-0.1,0.5-0.2,0.9-0.2,1.4c0,0.7,0.1,1.4,0.3,2.1
		C148.1,21.2,148.5,20.4,148.4,19.6z"/>
	
		<radialGradient id="SVGID_24_" cx="177.5685" cy="-1256.1226" r="9.2156" gradientTransform="matrix(1 0 0 1 0 1271.1812)" gradientUnits="userSpaceOnUse">
		<stop  offset="0" style="stop-color:#931C13"/>
		<stop  offset="0.1797" style="stop-color:#901B13"/>
		<stop  offset="0.3346" style="stop-color:#851911"/>
		<stop  offset="0.4804" style="stop-color:#73160F"/>
		<stop  offset="0.6205" style="stop-color:#5A110C"/>
		<stop  offset="0.7568" style="stop-color:#3A0B07"/>
		<stop  offset="0.8882" style="stop-color:#130402"/>
		<stop  offset="0.9441" style="stop-color:#000000"/>
	</radialGradient>
	<path class="st23" d="M187.4,15.9c-1.8-0.3-3.6-0.6-5.3-0.9c1.5-0.4,2.9-0.6,4.4-0.6c-0.7-1.1-1.6-2.2-2.6-3.2
		c-1-1.1-2.1-2-3.2-2.7c-1.1-0.7-2.1-1-3.2-1c-1.1,0-2.2,0.4-3.2,1.1c-1.1,0.7-2.1,1.6-3.2,2.7c-1.2,1.2-2.3,2.6-3,3.9
		c-0.8,1.3-1.2,2.6-1.2,4c0,1.2,0.3,2.2,0.9,3.4c1.8,0.1,3.7,0.1,5.5,0.1c-0.1-1-0.2-2.2-0.2-3.4c0-3.6,0.6-6.2,1.3-7.6
		c0.7-1.5,1.7-2.3,3.1-2.3s2.4,0.8,3.1,2.3c0.7,1.5,1.3,4,1.3,7.7c0,1.2-0.1,2.3-0.2,3.3c1.9-0.1,3.8-0.1,5.7-0.2
		c0.4-1,0.7-2,0.7-3.1C188.2,18,187.9,17,187.4,15.9z"/>
	
		<radialGradient id="SVGID_25_" cx="184.7401" cy="-1255.4257" r="1.9528" gradientTransform="matrix(1 0 0 1 0 1271.1812)" gradientUnits="userSpaceOnUse">
		<stop  offset="0" style="stop-color:#931C13"/>
		<stop  offset="0.1797" style="stop-color:#901B13"/>
		<stop  offset="0.3346" style="stop-color:#851911"/>
		<stop  offset="0.4804" style="stop-color:#73160F"/>
		<stop  offset="0.6205" style="stop-color:#5A110C"/>
		<stop  offset="0.7568" style="stop-color:#3A0B07"/>
		<stop  offset="0.8882" style="stop-color:#130402"/>
		<stop  offset="0.9441" style="stop-color:#000000"/>
	</radialGradient>
	<path class="st24" d="M187.4,16.5c-0.1-0.2-0.2-0.5-0.4-0.8c-0.1-0.2-0.3-0.5-0.4-0.7c-1.5,0-3,0.2-4.4,0.6
		C183.8,15.9,185.6,16.2,187.4,16.5z"/>
	
		<radialGradient id="SVGID_26_" cx="177.6549" cy="-1244.0754" r="7.5954" gradientTransform="matrix(1 0 0 1 0 1271.1812)" gradientUnits="userSpaceOnUse">
		<stop  offset="0" style="stop-color:#931C13"/>
		<stop  offset="0.1797" style="stop-color:#901B13"/>
		<stop  offset="0.3346" style="stop-color:#851911"/>
		<stop  offset="0.4804" style="stop-color:#73160F"/>
		<stop  offset="0.6205" style="stop-color:#5A110C"/>
		<stop  offset="0.7568" style="stop-color:#3A0B07"/>
		<stop  offset="0.8882" style="stop-color:#130402"/>
		<stop  offset="0.9441" style="stop-color:#000000"/>
	</radialGradient>
	<path class="st25" d="M180.7,27.5c-0.7,1.5-1.7,2.3-3.1,2.3s-2.4-0.9-3.1-2.3c-0.5-1-0.9-2.4-1.1-4.2c-1.8,0-3.7,0-5.5-0.1
		c0.1,0.2,0.2,0.4,0.3,0.7c0.8,1.3,1.8,2.6,3,3.8c1.1,1.1,2.1,2,3.2,2.7s2.1,1.1,3.2,1.1c1.1,0,2.2-0.3,3.2-1
		c1.1-0.7,2.1-1.6,3.2-2.7c1.2-1.2,2.3-2.6,3.1-3.9c0.2-0.3,0.4-0.7,0.5-1c-1.9,0.1-3.8,0.2-5.7,0.2C181.6,25,181.2,26.5,180.7,27.5
		z"/>
	
		<radialGradient id="SVGID_27_" cx="197.7995" cy="-1255.2188" r="9.4825" gradientTransform="matrix(1 0 0 1 0 1271.1812)" gradientUnits="userSpaceOnUse">
		<stop  offset="0" style="stop-color:#931C13"/>
		<stop  offset="0.1904" style="stop-color:#901B13"/>
		<stop  offset="0.3544" style="stop-color:#851911"/>
		<stop  offset="0.5088" style="stop-color:#73160F"/>
		<stop  offset="0.6573" style="stop-color:#5A110C"/>
		<stop  offset="0.8015" style="stop-color:#3A0B07"/>
		<stop  offset="0.9407" style="stop-color:#130402"/>
		<stop  offset="1" style="stop-color:#000000"/>
	</radialGradient>
	<path class="st26" d="M204.3,11.5c-2.4-2.1-5-3.8-8.2-3.7c-2.8,0.2-5.6,0.9-8.4,2.4c-0.2,0.4-0.4,0.8-0.6,1.2
		c0.9-0.3,1.4-0.3,1.6-0.2c0.2,0.2,0.2,0.7-0.1,1.6c-0.1,0.5-0.2,0.9-0.3,1.3c1.7,0.2,3.5,0.6,5.1,1.2c0.1-1.1,0.1-2.2,0.2-3.3
		c0.1-1.1,0.3-1.7,0.7-2.1c0.3-0.3,1-0.6,2-0.6c1.9-0.1,3.3,0.8,4.3,2.2c1,1.4,1.8,3.8,1.8,7.2c0,1.7-0.2,3.1-0.5,4.3
		c0.1,0.1,0.1,0.2,0.2,0.2c1.4,0.2,2.8,0.4,4.2,0.6c1.3-1.6,2.1-3.3,2.1-5.2C208.5,16.1,206.6,13.7,204.3,11.5z"/>
	
		<radialGradient id="SVGID_28_" cx="196.7168" cy="-1244.4823" r="7.4121" gradientTransform="matrix(1 0 0 1 0 1271.1812)" gradientUnits="userSpaceOnUse">
		<stop  offset="0" style="stop-color:#931C13"/>
		<stop  offset="0.1904" style="stop-color:#901B13"/>
		<stop  offset="0.3544" style="stop-color:#851911"/>
		<stop  offset="0.5088" style="stop-color:#73160F"/>
		<stop  offset="0.6573" style="stop-color:#5A110C"/>
		<stop  offset="0.8015" style="stop-color:#3A0B07"/>
		<stop  offset="0.9407" style="stop-color:#130402"/>
		<stop  offset="1" style="stop-color:#000000"/>
	</radialGradient>
	<path class="st27" d="M201.9,24.1c-0.3,1.2-0.8,2.2-1.3,2.9c-1,1.4-2.4,2.3-4.3,2.3c-1,0-1.6-0.2-2-0.6c-0.3-0.3-0.6-1.1-0.7-2.1
		c-0.1-1.3-0.2-2.7-0.2-4c-1.8,0.1-3.6,0.2-5.3,0.2c0.1,1,0.3,2,0.6,3.1c0.2,0.8,0.2,1.4,0.1,1.6c-0.2,0.2-0.7,0.2-1.6-0.2
		c0.2,0.4,0.4,0.8,0.6,1.2c2.8,1.4,5.6,2.2,8.4,2.4c3.2,0.2,5.7-1.5,8.2-3.7c0.7-0.7,1.5-1.4,2.1-2.2c-1.4-0.2-2.8-0.4-4.2-0.6
		C202,24.3,202,24.2,201.9,24.1z"/>
	
		<radialGradient id="SVGID_29_" cx="196.322" cy="-1251.4558" r="2.9267" gradientTransform="matrix(1 0 0 1 0 1271.1812)" gradientUnits="userSpaceOnUse">
		<stop  offset="0" style="stop-color:#931C13"/>
		<stop  offset="0.1904" style="stop-color:#901B13"/>
		<stop  offset="0.3544" style="stop-color:#851911"/>
		<stop  offset="0.5088" style="stop-color:#73160F"/>
		<stop  offset="0.6573" style="stop-color:#5A110C"/>
		<stop  offset="0.8015" style="stop-color:#3A0B07"/>
		<stop  offset="0.9407" style="stop-color:#130402"/>
		<stop  offset="1" style="stop-color:#000000"/>
	</radialGradient>
	<path class="st28" d="M199.1,18.1c-1.7-0.6-3.5-1-5.3-1.4c-0.2,2.1-0.2,4.1,0,6.2c1.8-0.1,3.6-0.2,5.3-0.2
		C199,21,199,19.5,199.1,18.1z"/>
	
		<radialGradient id="SVGID_30_" cx="190.8096" cy="-1254.6039" r="2.1687" gradientTransform="matrix(1 0 0 1 0 1271.1812)" gradientUnits="userSpaceOnUse">
		<stop  offset="0" style="stop-color:#931C13"/>
		<stop  offset="0.1904" style="stop-color:#901B13"/>
		<stop  offset="0.3544" style="stop-color:#851911"/>
		<stop  offset="0.5088" style="stop-color:#73160F"/>
		<stop  offset="0.6573" style="stop-color:#5A110C"/>
		<stop  offset="0.8015" style="stop-color:#3A0B07"/>
		<stop  offset="0.9407" style="stop-color:#130402"/>
		<stop  offset="1" style="stop-color:#000000"/>
	</radialGradient>
	<path class="st29" d="M193.5,16.3c-1.7-0.6-3.4-1-5.1-1.2c-0.1,0.5-0.2,1-0.2,1.6c1.8,0.4,3.6,0.8,5.3,1.4
		C193.4,17.5,193.5,16.9,193.5,16.3z"/>
	
		<radialGradient id="SVGID_31_" cx="-224.4239" cy="3494.3059" r="7.6966" gradientTransform="matrix(-0.9665 -0.2565 0.2565 -0.9665 -894.7917 3336.3972)" gradientUnits="userSpaceOnUse">
		<stop  offset="0" style="stop-color:#931C13"/>
		<stop  offset="0.1797" style="stop-color:#901B13"/>
		<stop  offset="0.3346" style="stop-color:#851911"/>
		<stop  offset="0.4804" style="stop-color:#73160F"/>
		<stop  offset="0.6205" style="stop-color:#5A110C"/>
		<stop  offset="0.7568" style="stop-color:#3A0B07"/>
		<stop  offset="0.8882" style="stop-color:#130402"/>
		<stop  offset="0.9441" style="stop-color:#000000"/>
	</radialGradient>
	<path class="st30" d="M219.8,19.9c-0.9-0.7-1.9-1.3-2.8-1.9c-1.3-0.8-2.2-1.5-2.6-2.1c-0.4-0.6-0.4-1.2-0.2-2
		c0.3-0.8,1-1.5,1.8-2.1c0.9-0.5,1.8-0.8,2.8-0.6c1.3,0.2,2.3,1.3,3.2,3c0.8,1.7,1.6,3.9,2,6.2c0.3,0.1,0.6,0.2,0.8,0.3
		c0.3-0.1,0.6-0.1,1-0.2c0.2-2.2,0.2-4.5-0.1-7c-0.3-0.4-0.7-0.7-1-1.1c0,0.4-0.1,0.7-0.3,0.8c-0.2,0.1-0.3,0.1-0.6,0
		c-0.2-0.2-0.6-0.5-1-1c-0.4-0.5-0.7-0.9-0.9-1.1c-0.6-0.6-1-1-1.4-1.2c-0.4-0.2-0.8-0.4-1.2-0.5c-1.7-0.3-3.4,0.6-5.2,1.8
		c-1.8,1.2-3.2,2.6-3.9,4.1c-0.6,1.3-0.4,2.6,0.3,3.9c0.6,1.1,1.7,2.3,3.2,3.5c2.7-0.2,5.3-0.8,8-1.3
		C221.2,21,220.6,20.4,219.8,19.9z"/>
	
		<radialGradient id="SVGID_32_" cx="-226.283" cy="3483.2776" r="6.7146" gradientTransform="matrix(-0.9665 -0.2565 0.2565 -0.9665 -894.7917 3336.3972)" gradientUnits="userSpaceOnUse">
		<stop  offset="0" style="stop-color:#931C13"/>
		<stop  offset="0.1797" style="stop-color:#901B13"/>
		<stop  offset="0.3346" style="stop-color:#851911"/>
		<stop  offset="0.4804" style="stop-color:#73160F"/>
		<stop  offset="0.6205" style="stop-color:#5A110C"/>
		<stop  offset="0.7568" style="stop-color:#3A0B07"/>
		<stop  offset="0.8882" style="stop-color:#130402"/>
		<stop  offset="0.9441" style="stop-color:#000000"/>
	</radialGradient>
	<path class="st31" d="M211.6,31.6c0.1-0.3,0.2-0.5,0.3-0.6c0.2-0.1,0.3-0.1,0.5,0c0.1,0,0.2,0.1,0.2,0.2c0.1,0.1,0.2,0.1,0.2,0.2
		c0,0,0.1,0.2,0.3,0.4c0.2,0.2,0.4,0.5,0.6,0.7c0.4,0.5,0.8,0.8,1.2,1c0.3,0.2,0.7,0.3,1.1,0.4c1.6,0.3,3.2-0.5,4.9-1.6
		c1.7-1.2,3-2.4,3.6-3.9c0.5-1.2,0.4-2.3-0.2-3.5c-0.3-0.6-0.8-1.2-1.4-1.8c-2.7,0.5-5.3,1.1-8,1.3c0.2,0.2,0.4,0.3,0.6,0.4
		c1,0.7,1.9,1.3,2.8,1.8c0.9,0.6,1.6,1.1,2,1.7c0.4,0.6,0.5,1.2,0.2,1.8c-0.3,0.7-0.8,1.3-1.6,1.7c-0.8,0.4-1.6,0.6-2.6,0.4
		c-1.1-0.2-1.9-1-2.6-2.2c-0.7-1.2-1.3-3-1.8-5c-0.4-0.2-0.8-0.4-1.3-0.6c0,0-0.1,0-0.1,0c-0.2,2.1-0.2,4.2-0.1,6.4
		C211,31.1,211.3,31.4,211.6,31.6z"/>
</g>
</svg>
